<svg width="200" height="200" viewBox="0 0 200 200" fill="none" xmlns="http://www.w3.org/2000/svg">
<g clip-path="url(#clip0_6_151)">
<path d="M116.5 52.5618C120.248 52.5618 123.287 49.5328 123.287 45.7963C123.287 42.0598 120.248 39.0308 116.5 39.0308C112.751 39.0308 109.713 42.0598 109.713 45.7963C109.713 49.5328 112.751 52.5618 116.5 52.5618Z" fill="#F2F2F2"/>
<path d="M169.149 152.97C179.237 145.31 184.055 132.439 181.039 120.161C180.964 119.856 180.884 119.552 180.801 119.248C178.801 111.96 173.854 105.033 166.643 102.704C160.588 100.749 153.979 102.252 147.663 101.475C135.263 99.9485 125.65 89.9475 118.886 79.4764C112.122 69.0053 106.924 57.2844 97.9355 48.6337C83.1202 34.3745 58.9528 31.3045 40.584 40.5861C22.2152 49.8678 10.5144 70.46 11.0134 90.9827C11.5125 111.505 23.7346 131.126 41.4842 141.537C48.0047 145.361 55.5462 148.07 63.0516 147.122C69.5639 146.3 75.4811 142.812 81.9628 141.776C92.1535 140.148 102.279 144.741 111.093 150.093C119.908 155.445 128.421 161.789 138.437 164.27C148.163 166.68 160.212 159.755 169.149 152.97Z" fill="#F2F2F2"/>
<path d="M154.654 41.0171C154.433 40.8701 154.21 40.7308 153.988 40.5889C147.596 36.5134 140.744 33.2026 133.575 30.7247L131.912 53.5849H121.374V27.3877C120.71 27.2508 120.042 27.1216 119.373 27V53.5849H106.849C99.9548 53.5849 93.3427 50.8547 88.4675 45.995C83.5924 41.1353 80.8536 34.5441 80.8536 27.6715C80.1825 27.8159 79.5165 27.9704 78.8506 28.1351V53.5849H68.65L67.0664 31.7864C59.6987 34.6031 52.7041 38.3071 46.2383 42.8161C46.1264 42.8921 46.0146 42.9707 45.9053 43.0467C45.3435 43.4394 44.7894 43.8398 44.2378 44.2452V131.457H74.3006L73.7693 124.121L70.8462 83.8463H129.714L126.79 124.121L126.259 131.457H155.989V41.8989C155.547 41.5999 155.102 41.306 154.654 41.0171ZM78.8506 77.195H70.3632L68.7949 55.5815H78.8506V77.195ZM119.373 77.195H105.118V76.7668C105.118 76.561 105.078 76.3571 104.999 76.167C104.919 75.9768 104.803 75.8041 104.657 75.6586C104.511 75.5132 104.338 75.3979 104.147 75.3194C103.956 75.2408 103.751 75.2006 103.545 75.2009H97.3478C97.1415 75.2008 96.9372 75.2413 96.7466 75.3199C96.5559 75.3986 96.3827 75.5139 96.2368 75.6594C96.091 75.8048 95.9753 75.9774 95.8963 76.1675C95.8174 76.3575 95.7768 76.5611 95.7769 76.7668V77.195H80.8536V55.5815H119.373V77.195ZM121.374 77.195V55.5815H131.767L130.199 77.195H121.374Z" fill="#3F3D56"/>
<path d="M-7.62939e-06 137.042C2.20819 139.65 4.5966 142.101 7.14775 144.377L192.852 144.63C195.403 142.354 197.792 139.903 200 137.295L-7.62939e-06 137.042Z" fill="#3F3D56"/>
<path d="M125.932 113.553V135.269C125.932 135.546 126.043 135.811 126.239 136.007C126.435 136.203 126.702 136.313 126.979 136.313H159.262C159.54 136.313 159.806 136.203 160.002 136.007C160.199 135.811 160.309 135.546 160.309 135.269V113.553C160.309 113.277 160.198 113.012 160.002 112.816C159.806 112.621 159.54 112.511 159.262 112.511H126.979C126.702 112.511 126.436 112.621 126.24 112.816C126.043 113.012 125.933 113.277 125.932 113.553Z" fill="#3F3D56"/>
<path d="M126.69 113.823V135.001C126.69 135.149 126.749 135.291 126.854 135.395C126.959 135.5 127.101 135.559 127.249 135.559H158.993C159.142 135.559 159.284 135.5 159.389 135.395C159.494 135.291 159.553 135.149 159.553 135.001V113.823C159.553 113.675 159.494 113.533 159.389 113.429C159.284 113.324 159.142 113.265 158.993 113.264H127.249C127.101 113.265 126.958 113.324 126.853 113.429C126.748 113.533 126.69 113.675 126.69 113.823Z" fill="#6C63FF"/>
<path d="M125.257 139.504C125.316 139.578 125.391 139.638 125.477 139.679C125.562 139.719 125.656 139.74 125.751 139.74H160.319C160.413 139.74 160.506 139.719 160.592 139.678C160.677 139.637 160.752 139.578 160.812 139.505C160.871 139.432 160.914 139.347 160.936 139.255C160.958 139.163 160.96 139.068 160.94 138.976L160.404 136.435C160.381 136.331 160.334 136.235 160.264 136.155C160.195 136.074 160.107 136.012 160.008 135.974C159.936 135.946 159.859 135.932 159.782 135.932H126.286C126.208 135.932 126.132 135.946 126.06 135.974C125.96 136.012 125.872 136.074 125.803 136.155C125.734 136.235 125.686 136.331 125.664 136.435L125.127 138.976C125.108 139.068 125.11 139.163 125.132 139.255C125.155 139.346 125.197 139.431 125.257 139.504Z" fill="#2F2E41"/>
<path d="M158.596 137.026H159.412C159.481 137.026 159.536 136.971 159.536 136.903V136.513C159.536 136.445 159.481 136.39 159.412 136.39H158.596C158.527 136.39 158.472 136.445 158.472 136.513V136.903C158.472 136.971 158.527 137.026 158.596 137.026Z" fill="#3F3D56"/>
<path d="M156.467 137.026H157.283C157.352 137.026 157.407 136.971 157.407 136.903V136.513C157.407 136.445 157.352 136.39 157.283 136.39H156.467C156.398 136.39 156.342 136.445 156.342 136.513V136.903C156.342 136.971 156.398 137.026 156.467 137.026Z" fill="#3F3D56"/>
<path d="M154.337 137.026H155.154C155.222 137.026 155.278 136.971 155.278 136.903V136.513C155.278 136.445 155.222 136.39 155.154 136.39H154.337C154.269 136.39 154.213 136.445 154.213 136.513V136.903C154.213 136.971 154.269 137.026 154.337 137.026Z" fill="#3F3D56"/>
<path d="M152.208 137.026H153.024C153.093 137.026 153.148 136.971 153.148 136.903V136.513C153.148 136.445 153.093 136.39 153.024 136.39H152.208C152.139 136.39 152.084 136.445 152.084 136.513V136.903C152.084 136.971 152.139 137.026 152.208 137.026Z" fill="#3F3D56"/>
<path d="M150.079 137.026H150.895C150.964 137.026 151.019 136.971 151.019 136.903V136.513C151.019 136.445 150.964 136.39 150.895 136.39H150.079C150.01 136.39 149.954 136.445 149.954 136.513V136.903C149.954 136.971 150.01 137.026 150.079 137.026Z" fill="#3F3D56"/>
<path d="M147.949 137.026H148.766C148.834 137.026 148.89 136.971 148.89 136.903V136.513C148.89 136.445 148.834 136.39 148.766 136.39H147.949C147.881 136.39 147.825 136.445 147.825 136.513V136.903C147.825 136.971 147.881 137.026 147.949 137.026Z" fill="#3F3D56"/>
<path d="M145.82 137.026H146.636C146.705 137.026 146.76 136.971 146.76 136.903V136.513C146.76 136.445 146.705 136.39 146.636 136.39H145.82C145.751 136.39 145.696 136.445 145.696 136.513V136.903C145.696 136.971 145.751 137.026 145.82 137.026Z" fill="#3F3D56"/>
<path d="M143.691 137.026H144.507C144.576 137.026 144.631 136.971 144.631 136.903V136.513C144.631 136.445 144.576 136.39 144.507 136.39H143.691C143.622 136.39 143.566 136.445 143.566 136.513V136.903C143.566 136.971 143.622 137.026 143.691 137.026Z" fill="#3F3D56"/>
<path d="M141.561 137.026H142.378C142.446 137.026 142.502 136.971 142.502 136.903V136.513C142.502 136.445 142.446 136.39 142.378 136.39H141.561C141.493 136.39 141.437 136.445 141.437 136.513V136.903C141.437 136.971 141.493 137.026 141.561 137.026Z" fill="#3F3D56"/>
<path d="M139.432 137.026H140.248C140.317 137.026 140.373 136.971 140.373 136.903V136.513C140.373 136.445 140.317 136.39 140.248 136.39H139.432C139.363 136.39 139.308 136.445 139.308 136.513V136.903C139.308 136.971 139.363 137.026 139.432 137.026Z" fill="#3F3D56"/>
<path d="M137.303 137.026H138.119C138.188 137.026 138.243 136.971 138.243 136.903V136.513C138.243 136.445 138.188 136.39 138.119 136.39H137.303C137.234 136.39 137.179 136.445 137.179 136.513V136.903C137.179 136.971 137.234 137.026 137.303 137.026Z" fill="#3F3D56"/>
<path d="M135.173 137.026H135.99C136.058 137.026 136.114 136.971 136.114 136.903V136.513C136.114 136.445 136.058 136.39 135.99 136.39H135.173C135.105 136.39 135.049 136.445 135.049 136.513V136.903C135.049 136.971 135.105 137.026 135.173 137.026Z" fill="#3F3D56"/>
<path d="M133.044 137.026H133.86C133.929 137.026 133.985 136.971 133.985 136.903V136.513C133.985 136.445 133.929 136.39 133.86 136.39H133.044C132.975 136.39 132.92 136.445 132.92 136.513V136.903C132.92 136.971 132.975 137.026 133.044 137.026Z" fill="#3F3D56"/>
<path d="M130.915 137.026H131.731C131.8 137.026 131.855 136.971 131.855 136.903V136.513C131.855 136.445 131.8 136.39 131.731 136.39H130.915C130.846 136.39 130.791 136.445 130.791 136.513V136.903C130.791 136.971 130.846 137.026 130.915 137.026Z" fill="#3F3D56"/>
<path d="M128.785 137.026H129.602C129.67 137.026 129.726 136.971 129.726 136.903V136.513C129.726 136.445 129.67 136.39 129.602 136.39H128.785C128.717 136.39 128.661 136.445 128.661 136.513V136.903C128.661 136.971 128.717 137.026 128.785 137.026Z" fill="#3F3D56"/>
<path d="M126.656 137.026H127.472C127.541 137.026 127.597 136.971 127.597 136.903V136.513C127.597 136.445 127.541 136.39 127.472 136.39H126.656C126.587 136.39 126.532 136.445 126.532 136.513V136.903C126.532 136.971 126.587 137.026 126.656 137.026Z" fill="#3F3D56"/>
<path d="M158.621 138.088H159.438C159.506 138.088 159.562 138.032 159.562 137.964V137.575C159.562 137.506 159.506 137.451 159.438 137.451H158.621C158.553 137.451 158.497 137.506 158.497 137.575V137.964C158.497 138.032 158.553 138.088 158.621 138.088Z" fill="#3F3D56"/>
<path d="M156.492 138.088H157.308C157.377 138.088 157.432 138.032 157.432 137.964V137.575C157.432 137.506 157.377 137.451 157.308 137.451H156.492C156.423 137.451 156.368 137.506 156.368 137.575V137.964C156.368 138.032 156.423 138.088 156.492 138.088Z" fill="#3F3D56"/>
<path d="M154.362 138.088H155.179C155.247 138.088 155.303 138.032 155.303 137.964V137.575C155.303 137.506 155.247 137.451 155.179 137.451H154.362C154.294 137.451 154.238 137.506 154.238 137.575V137.964C154.238 138.032 154.294 138.088 154.362 138.088Z" fill="#3F3D56"/>
<path d="M152.233 138.088H153.05C153.118 138.088 153.174 138.032 153.174 137.964V137.575C153.174 137.506 153.118 137.451 153.05 137.451H152.233C152.165 137.451 152.109 137.506 152.109 137.575V137.964C152.109 138.032 152.165 138.088 152.233 138.088Z" fill="#3F3D56"/>
<path d="M150.104 138.088H150.92C150.989 138.088 151.044 138.032 151.044 137.964V137.575C151.044 137.506 150.989 137.451 150.92 137.451H150.104C150.035 137.451 149.98 137.506 149.98 137.575V137.964C149.98 138.032 150.035 138.088 150.104 138.088Z" fill="#3F3D56"/>
<path d="M147.974 138.088H148.791C148.859 138.088 148.915 138.032 148.915 137.964V137.575C148.915 137.506 148.859 137.451 148.791 137.451H147.974C147.906 137.451 147.85 137.506 147.85 137.575V137.964C147.85 138.032 147.906 138.088 147.974 138.088Z" fill="#3F3D56"/>
<path d="M145.845 138.088H146.662C146.73 138.088 146.786 138.032 146.786 137.964V137.575C146.786 137.506 146.73 137.451 146.662 137.451H145.845C145.777 137.451 145.721 137.506 145.721 137.575V137.964C145.721 138.032 145.777 138.088 145.845 138.088Z" fill="#3F3D56"/>
<path d="M143.716 138.088H144.532C144.601 138.088 144.656 138.032 144.656 137.964V137.575C144.656 137.506 144.601 137.451 144.532 137.451H143.716C143.647 137.451 143.592 137.506 143.592 137.575V137.964C143.592 138.032 143.647 138.088 143.716 138.088Z" fill="#3F3D56"/>
<path d="M141.586 138.088H142.403C142.471 138.088 142.527 138.032 142.527 137.964V137.575C142.527 137.506 142.471 137.451 142.403 137.451H141.586C141.518 137.451 141.462 137.506 141.462 137.575V137.964C141.462 138.032 141.518 138.088 141.586 138.088Z" fill="#3F3D56"/>
<path d="M139.457 138.088H140.274C140.342 138.088 140.398 138.032 140.398 137.964V137.575C140.398 137.506 140.342 137.451 140.274 137.451H139.457C139.389 137.451 139.333 137.506 139.333 137.575V137.964C139.333 138.032 139.389 138.088 139.457 138.088Z" fill="#3F3D56"/>
<path d="M137.328 138.088H138.144C138.213 138.088 138.268 138.032 138.268 137.964V137.575C138.268 137.506 138.213 137.451 138.144 137.451H137.328C137.259 137.451 137.204 137.506 137.204 137.575V137.964C137.204 138.032 137.259 138.088 137.328 138.088Z" fill="#3F3D56"/>
<path d="M135.198 138.088H136.015C136.083 138.088 136.139 138.032 136.139 137.964V137.575C136.139 137.506 136.083 137.451 136.015 137.451H135.198C135.13 137.451 135.074 137.506 135.074 137.575V137.964C135.074 138.032 135.13 138.088 135.198 138.088Z" fill="#3F3D56"/>
<path d="M133.069 138.088H133.886C133.954 138.088 134.01 138.032 134.01 137.964V137.575C134.01 137.506 133.954 137.451 133.886 137.451H133.069C133.001 137.451 132.945 137.506 132.945 137.575V137.964C132.945 138.032 133.001 138.088 133.069 138.088Z" fill="#3F3D56"/>
<path d="M130.94 138.088H131.756C131.825 138.088 131.88 138.032 131.88 137.964V137.575C131.88 137.506 131.825 137.451 131.756 137.451H130.94C130.871 137.451 130.816 137.506 130.816 137.575V137.964C130.816 138.032 130.871 138.088 130.94 138.088Z" fill="#3F3D56"/>
<path d="M128.81 138.088H129.627C129.695 138.088 129.751 138.032 129.751 137.964V137.575C129.751 137.506 129.695 137.451 129.627 137.451H128.81C128.742 137.451 128.686 137.506 128.686 137.575V137.964C128.686 138.032 128.742 138.088 128.81 138.088Z" fill="#3F3D56"/>
<path d="M126.681 138.088H127.498C127.566 138.088 127.622 138.032 127.622 137.964V137.575C127.622 137.506 127.566 137.451 127.498 137.451H126.681C126.613 137.451 126.557 137.506 126.557 137.575V137.964C126.557 138.032 126.613 138.088 126.681 138.088Z" fill="#3F3D56"/>
<path d="M140.948 139.361H149.217C149.285 139.361 149.341 139.306 149.341 139.237V138.848C149.341 138.78 149.285 138.724 149.217 138.724H140.948C140.879 138.724 140.824 138.78 140.824 138.848V139.237C140.824 139.306 140.879 139.361 140.948 139.361Z" fill="#3F3D56"/>
<path d="M132.187 117.898H131.464C131.245 117.898 131.067 118.075 131.067 118.293C131.067 118.512 131.245 118.689 131.464 118.689H132.187C132.406 118.689 132.584 118.512 132.584 118.293C132.584 118.075 132.406 117.898 132.187 117.898Z" fill="white"/>
<path d="M140.454 117.898H139.731C139.512 117.898 139.334 118.075 139.334 118.293C139.334 118.512 139.512 118.689 139.731 118.689H140.454C140.673 118.689 140.85 118.512 140.85 118.293C140.85 118.075 140.673 117.898 140.454 117.898Z" fill="white"/>
<path d="M142.796 117.898H142.073C141.854 117.898 141.676 118.075 141.676 118.293C141.676 118.512 141.854 118.689 142.073 118.689H142.796C143.015 118.689 143.193 118.512 143.193 118.293C143.193 118.075 143.015 117.898 142.796 117.898Z" fill="white"/>
<path d="M138.205 117.832H133.713C133.493 117.832 133.316 118.009 133.316 118.227C133.316 118.446 133.493 118.623 133.713 118.623H138.205C138.424 118.623 138.602 118.446 138.602 118.227C138.602 118.009 138.424 117.832 138.205 117.832Z" fill="white"/>
<path d="M149.228 117.832H144.735C144.516 117.832 144.338 118.009 144.338 118.227C144.338 118.446 144.516 118.623 144.735 118.623H149.228C149.447 118.623 149.624 118.446 149.624 118.227C149.624 118.009 149.447 117.832 149.228 117.832Z" fill="white"/>
<path d="M134.391 119.683H133.668C133.449 119.683 133.272 119.86 133.272 120.079C133.272 120.297 133.449 120.474 133.668 120.474H134.391C134.61 120.474 134.788 120.297 134.788 120.079C134.788 119.86 134.61 119.683 134.391 119.683Z" fill="white"/>
<path d="M142.658 119.683H141.935C141.716 119.683 141.539 119.86 141.539 120.079C141.539 120.297 141.716 120.474 141.935 120.474H142.658C142.877 120.474 143.055 120.297 143.055 120.079C143.055 119.86 142.877 119.683 142.658 119.683Z" fill="white"/>
<path d="M145.001 119.683H144.278C144.059 119.683 143.881 119.86 143.881 120.079C143.881 120.297 144.059 120.474 144.278 120.474H145.001C145.22 120.474 145.397 120.297 145.397 120.079C145.397 119.86 145.22 119.683 145.001 119.683Z" fill="white"/>
<path d="M140.41 119.617H135.917C135.698 119.617 135.52 119.794 135.52 120.013C135.52 120.231 135.698 120.408 135.917 120.408H140.41C140.629 120.408 140.806 120.231 140.806 120.013C140.806 119.794 140.629 119.617 140.41 119.617Z" fill="white"/>
<path d="M151.432 119.617H146.94C146.721 119.617 146.543 119.794 146.543 120.013C146.543 120.231 146.721 120.408 146.94 120.408H151.432C151.651 120.408 151.829 120.231 151.829 120.013C151.829 119.794 151.651 119.617 151.432 119.617Z" fill="white"/>
<path d="M136.596 121.469H135.873C135.654 121.469 135.476 121.646 135.476 121.864C135.476 122.083 135.654 122.26 135.873 122.26H136.596C136.815 122.26 136.993 122.083 136.993 121.864C136.993 121.646 136.815 121.469 136.596 121.469Z" fill="white"/>
<path d="M144.863 121.469H144.14C143.921 121.469 143.743 121.646 143.743 121.864C143.743 122.083 143.921 122.26 144.14 122.26H144.863C145.082 122.26 145.26 122.083 145.26 121.864C145.26 121.646 145.082 121.469 144.863 121.469Z" fill="white"/>
<path d="M147.205 121.469H146.482C146.263 121.469 146.085 121.646 146.085 121.864C146.085 122.083 146.263 122.26 146.482 122.26H147.205C147.424 122.26 147.602 122.083 147.602 121.864C147.602 121.646 147.424 121.469 147.205 121.469Z" fill="white"/>
<path d="M142.614 121.403H138.122C137.902 121.403 137.725 121.58 137.725 121.798C137.725 122.017 137.902 122.194 138.122 122.194H142.614C142.833 122.194 143.011 122.017 143.011 121.798C143.011 121.58 142.833 121.403 142.614 121.403Z" fill="white"/>
<path d="M153.637 121.403H149.144C148.925 121.403 148.747 121.58 148.747 121.798C148.747 122.017 148.925 122.194 149.144 122.194H153.637C153.856 122.194 154.034 122.017 154.034 121.798C154.034 121.58 153.856 121.403 153.637 121.403Z" fill="white"/>
<path d="M138.8 123.254H138.077C137.858 123.254 137.681 123.431 137.681 123.65C137.681 123.868 137.858 124.045 138.077 124.045H138.8C139.019 124.045 139.197 123.868 139.197 123.65C139.197 123.431 139.019 123.254 138.8 123.254Z" fill="white"/>
<path d="M147.067 123.254H146.344C146.125 123.254 145.948 123.431 145.948 123.65C145.948 123.868 146.125 124.045 146.344 124.045H147.067C147.286 124.045 147.464 123.868 147.464 123.65C147.464 123.431 147.286 123.254 147.067 123.254Z" fill="white"/>
<path d="M149.41 123.254H148.687C148.468 123.254 148.29 123.431 148.29 123.65C148.29 123.868 148.468 124.045 148.687 124.045H149.41C149.629 124.045 149.806 123.868 149.806 123.65C149.806 123.431 149.629 123.254 149.41 123.254Z" fill="white"/>
<path d="M144.819 123.188H140.326C140.107 123.188 139.929 123.365 139.929 123.584C139.929 123.802 140.107 123.979 140.326 123.979H144.819C145.038 123.979 145.215 123.802 145.215 123.584C145.215 123.365 145.038 123.188 144.819 123.188Z" fill="white"/>
<path d="M140.454 130.354H139.731C139.512 130.354 139.334 130.531 139.334 130.75C139.334 130.968 139.512 131.145 139.731 131.145H140.454C140.673 131.145 140.85 130.968 140.85 130.75C140.85 130.531 140.673 130.354 140.454 130.354Z" fill="white"/>
<path d="M142.796 130.354H142.073C141.854 130.354 141.676 130.531 141.676 130.75C141.676 130.968 141.854 131.145 142.073 131.145H142.796C143.015 131.145 143.193 130.968 143.193 130.75C143.193 130.531 143.015 130.354 142.796 130.354Z" fill="white"/>
<path d="M149.228 130.42H144.735C144.516 130.42 144.338 130.597 144.338 130.816C144.338 131.034 144.516 131.211 144.735 131.211H149.228C149.447 131.211 149.624 131.034 149.624 130.816C149.624 130.597 149.447 130.42 149.228 130.42Z" fill="white"/>
<path d="M132.187 130.354H131.464C131.245 130.354 131.067 130.531 131.067 130.75C131.067 130.968 131.245 131.145 131.464 131.145H132.187C132.406 131.145 132.584 130.968 132.584 130.75C132.584 130.531 132.406 130.354 132.187 130.354Z" fill="white"/>
<path d="M138.205 130.42H133.713C133.493 130.42 133.316 130.597 133.316 130.816C133.316 131.034 133.493 131.211 133.713 131.211H138.205C138.424 131.211 138.602 131.034 138.602 130.816C138.602 130.597 138.424 130.42 138.205 130.42Z" fill="white"/>
<path d="M134.391 128.569H133.668C133.449 128.569 133.272 128.746 133.272 128.964C133.272 129.183 133.449 129.36 133.668 129.36H134.391C134.61 129.36 134.788 129.183 134.788 128.964C134.788 128.746 134.61 128.569 134.391 128.569Z" fill="white"/>
<path d="M142.658 128.569H141.935C141.716 128.569 141.539 128.746 141.539 128.964C141.539 129.183 141.716 129.36 141.935 129.36H142.658C142.877 129.36 143.055 129.183 143.055 128.964C143.055 128.746 142.877 128.569 142.658 128.569Z" fill="white"/>
<path d="M145.001 128.569H144.278C144.059 128.569 143.881 128.746 143.881 128.964C143.881 129.183 144.059 129.36 144.278 129.36H145.001C145.22 129.36 145.397 129.183 145.397 128.964C145.397 128.746 145.22 128.569 145.001 128.569Z" fill="white"/>
<path d="M140.41 128.634H135.917C135.698 128.634 135.52 128.812 135.52 129.03C135.52 129.248 135.698 129.426 135.917 129.426H140.41C140.629 129.426 140.806 129.248 140.806 129.03C140.806 128.812 140.629 128.634 140.41 128.634Z" fill="white"/>
<path d="M136.596 126.783H135.873C135.654 126.783 135.476 126.96 135.476 127.179C135.476 127.397 135.654 127.574 135.873 127.574H136.596C136.815 127.574 136.993 127.397 136.993 127.179C136.993 126.96 136.815 126.783 136.596 126.783Z" fill="white"/>
<path d="M144.863 126.783H144.14C143.921 126.783 143.743 126.96 143.743 127.179C143.743 127.397 143.921 127.574 144.14 127.574H144.863C145.082 127.574 145.26 127.397 145.26 127.179C145.26 126.96 145.082 126.783 144.863 126.783Z" fill="white"/>
<path d="M147.205 126.783H146.482C146.263 126.783 146.085 126.96 146.085 127.179C146.085 127.397 146.263 127.574 146.482 127.574H147.205C147.424 127.574 147.602 127.397 147.602 127.179C147.602 126.96 147.424 126.783 147.205 126.783Z" fill="white"/>
<path d="M142.614 126.849H138.122C137.902 126.849 137.725 127.026 137.725 127.245C137.725 127.463 137.902 127.64 138.122 127.64H142.614C142.833 127.64 143.011 127.463 143.011 127.245C143.011 127.026 142.833 126.849 142.614 126.849Z" fill="white"/>
<path d="M138.8 124.998H138.077C137.858 124.998 137.681 125.175 137.681 125.393C137.681 125.612 137.858 125.789 138.077 125.789H138.8C139.019 125.789 139.197 125.612 139.197 125.393C139.197 125.175 139.019 124.998 138.8 124.998Z" fill="white"/>
<path d="M147.067 124.998H146.344C146.125 124.998 145.948 125.175 145.948 125.393C145.948 125.612 146.125 125.789 146.344 125.789H147.067C147.286 125.789 147.464 125.612 147.464 125.393C147.464 125.175 147.286 124.998 147.067 124.998Z" fill="white"/>
<path d="M149.41 124.998H148.687C148.468 124.998 148.29 125.175 148.29 125.393C148.29 125.612 148.468 125.789 148.687 125.789H149.41C149.629 125.789 149.806 125.612 149.806 125.393C149.806 125.175 149.629 124.998 149.41 124.998Z" fill="white"/>
<path d="M144.819 125.063H140.326C140.107 125.063 139.929 125.241 139.929 125.459C139.929 125.677 140.107 125.855 140.326 125.855H144.819C145.038 125.855 145.215 125.677 145.215 125.459C145.215 125.241 145.038 125.063 144.819 125.063Z" fill="white"/>
<path d="M128.344 151.279L124.95 145.933L135.601 137.469L139.998 132.614C140.569 131.983 141.296 131.513 142.107 131.25C142.917 130.987 143.783 130.941 144.617 131.116C145.451 131.291 146.225 131.681 146.86 132.248C147.495 132.814 147.971 133.537 148.238 134.344C148.634 135.54 148.549 136.842 148 137.976C147.452 139.11 146.482 139.987 145.297 140.423L138.345 142.976L128.344 151.279Z" fill="#FFB6B6"/>
<path d="M48.7252 112.512V138.499H66.9886V112.512C66.9889 112.325 66.9291 112.143 66.8179 111.992C66.7068 111.842 66.5501 111.731 66.371 111.676C66.2865 111.648 66.1981 111.634 66.1091 111.635H49.6073C49.4916 111.635 49.377 111.657 49.2701 111.701C49.1631 111.745 49.0659 111.81 48.984 111.891C48.9021 111.973 48.837 112.069 48.7927 112.176C48.7483 112.282 48.7254 112.396 48.7252 112.512ZM55.8527 121.441C55.8574 120.929 56.0649 120.439 56.43 120.078C56.7952 119.718 57.2883 119.515 57.8023 119.515C58.3162 119.515 58.8094 119.718 59.1745 120.078C59.5396 120.439 59.7471 120.929 59.7519 121.441V124.456C59.7493 124.97 59.5427 125.462 59.1774 125.824C58.812 126.186 58.3176 126.39 57.8023 126.39C57.2869 126.39 56.7925 126.186 56.4272 125.824C56.0619 125.462 55.8553 124.97 55.8527 124.456V121.441Z" fill="#2F2E41"/>
<path d="M48.6693 137.667V140.173C48.6698 140.303 48.7215 140.428 48.8133 140.52C48.9052 140.612 49.0297 140.664 49.1599 140.665H66.554C66.6843 140.664 66.8091 140.612 66.9011 140.52C66.993 140.428 67.0446 140.303 67.0446 140.173V137.667H48.6693Z" fill="#3F3D56"/>
<path d="M19.9944 73.3591V120.807C19.9949 121.412 20.2361 121.992 20.665 122.419C21.0939 122.847 21.6755 123.087 22.2821 123.088H92.8192C93.4258 123.087 94.0074 122.847 94.4363 122.419C94.8652 121.992 95.1064 121.412 95.1069 120.807V73.3591C95.1054 72.7549 94.8639 72.176 94.4351 71.749C94.0063 71.3221 93.4253 71.0819 92.8192 71.0811H22.2821C21.676 71.0819 21.095 71.3221 20.6662 71.749C20.2374 72.176 19.9958 72.7549 19.9944 73.3591Z" fill="#3F3D56"/>
<path d="M21.6492 73.9494V120.222C21.6497 120.545 21.7787 120.855 22.0079 121.083C22.2371 121.312 22.5477 121.44 22.8718 121.441H92.232C92.5561 121.44 92.8668 121.312 93.0959 121.083C93.3251 120.855 93.4541 120.545 93.4547 120.222V73.9494C93.4546 73.626 93.3259 73.3157 93.0967 73.0868C92.8675 72.8578 92.5565 72.7288 92.232 72.7281H22.8718C22.5473 72.7288 22.2364 72.8578 22.0072 73.0868C21.7779 73.3157 21.6492 73.626 21.6492 73.9494Z" fill="white"/>
<path d="M34.5212 140.495C34.5918 140.583 34.6816 140.655 34.7837 140.703C34.8858 140.752 34.9977 140.777 35.1109 140.776H76.3758C76.4886 140.776 76.6 140.751 76.7019 140.703C76.8037 140.654 76.8935 140.584 76.9646 140.496C77.0357 140.409 77.0863 140.307 77.1129 140.198C77.1394 140.088 77.1412 139.974 77.118 139.864L76.4775 136.831C76.4509 136.708 76.3938 136.593 76.3112 136.496C76.2286 136.4 76.1232 136.327 76.0047 136.281C75.9188 136.248 75.8274 136.231 75.7352 136.231H35.749C35.6568 136.231 35.5654 136.248 35.4795 136.281C35.361 136.327 35.2556 136.4 35.173 136.496C35.0904 136.593 35.0333 136.708 35.0067 136.831L34.3662 139.864C34.3434 139.974 34.3455 140.088 34.3723 140.197C34.3991 140.306 34.45 140.408 34.5212 140.495Z" fill="#2F2E41"/>
<path d="M89.9811 79.1024H25.081C25.0135 79.1009 24.9493 79.0731 24.9022 79.025C24.855 78.977 24.8286 78.9124 24.8286 78.8451C24.8286 78.7778 24.855 78.7133 24.9022 78.6652C24.9493 78.6171 25.0135 78.5893 25.081 78.5878H89.9811C90.0485 78.5893 90.1127 78.6171 90.1599 78.6652C90.2071 78.7133 90.2335 78.7778 90.2335 78.8451C90.2335 78.9124 90.2071 78.977 90.1599 79.025C90.1127 79.0731 90.0485 79.1009 89.9811 79.1024Z" fill="#3F3D56"/>
<path d="M29.4988 77.2743C30.3342 77.2743 31.0113 76.5842 31.0113 75.7329C31.0113 74.8817 30.3342 74.1916 29.4988 74.1916C28.6635 74.1916 27.9863 74.8817 27.9863 75.7329C27.9863 76.5842 28.6635 77.2743 29.4988 77.2743Z" fill="#3F3D56"/>
<path d="M34.7239 77.2743C35.5593 77.2743 36.2364 76.5842 36.2364 75.7329C36.2364 74.8817 35.5593 74.1916 34.7239 74.1916C33.8886 74.1916 33.2114 74.8817 33.2114 75.7329C33.2114 76.5842 33.8886 77.2743 34.7239 77.2743Z" fill="#3F3D56"/>
<path d="M39.949 77.2743C40.7843 77.2743 41.4615 76.5842 41.4615 75.7329C41.4615 74.8817 40.7843 74.1916 39.949 74.1916C39.1137 74.1916 38.4365 74.8817 38.4365 75.7329C38.4365 76.5842 39.1137 77.2743 39.949 77.2743Z" fill="#3F3D56"/>
<path d="M86.8347 74.5728H83.1236C83.0502 74.5745 82.9804 74.6047 82.9291 74.657C82.8778 74.7093 82.8491 74.7796 82.8491 74.8527C82.8491 74.9259 82.8778 74.9961 82.9291 75.0485C82.9804 75.1008 83.0502 75.131 83.1236 75.1327H86.8347C86.9085 75.1317 86.9789 75.1017 87.0308 75.0493C87.0826 74.9969 87.1116 74.9263 87.1116 74.8527C87.1116 74.7792 87.0826 74.7085 87.0308 74.6561C86.9789 74.6037 86.9085 74.5738 86.8347 74.5728Z" fill="#3F3D56"/>
<path d="M86.8347 75.6243H83.1236C83.0501 75.6259 82.9803 75.6561 82.9289 75.7085C82.8776 75.7608 82.8488 75.8311 82.8488 75.9043C82.8488 75.9775 82.8776 76.0478 82.9289 76.1001C82.9803 76.1524 83.0501 76.1826 83.1236 76.1843H86.8347C86.9086 76.1834 86.9792 76.1535 87.0311 76.1011C87.0831 76.0487 87.1122 75.978 87.1122 75.9043C87.1122 75.8306 87.0831 75.7599 87.0311 75.7075C86.9792 75.6551 86.9086 75.6252 86.8347 75.6243Z" fill="#3F3D56"/>
<path d="M86.8347 76.6758H83.1236C83.0502 76.6775 82.9804 76.7078 82.9291 76.7601C82.8778 76.8124 82.8491 76.8827 82.8491 76.9558C82.8491 77.0289 82.8778 77.0992 82.9291 77.1515C82.9804 77.2038 83.0502 77.2341 83.1236 77.2358H86.8347C86.9085 77.2347 86.9789 77.2048 87.0308 77.1524C87.0826 77.1 87.1116 77.0294 87.1116 76.9558C87.1116 76.8822 87.0826 76.8116 87.0308 76.7592C86.9789 76.7068 86.9085 76.6768 86.8347 76.6758Z" fill="#3F3D56"/>
<path d="M176.304 138.767C176.416 139.092 176.628 139.374 176.91 139.571C177.193 139.768 177.531 139.871 177.875 139.865L184.609 139.692C184.956 139.685 185.292 139.567 185.566 139.354C185.84 139.141 186.038 138.846 186.129 138.512L187.082 128.355C187.42 128.507 187.788 128.583 188.16 128.575C188.482 128.567 188.8 128.496 189.094 128.365C189.389 128.235 189.655 128.048 189.877 127.815C190.1 127.582 190.274 127.308 190.39 127.008C190.506 126.708 190.561 126.388 190.553 126.066C190.545 125.745 190.473 125.428 190.342 125.135C190.212 124.841 190.024 124.576 189.79 124.354C189.557 124.132 189.281 123.959 188.98 123.843C188.68 123.728 188.359 123.673 188.036 123.681C187.888 123.68 187.74 123.696 187.595 123.726C187.437 123.556 187.245 123.421 187.032 123.329C186.819 123.237 186.588 123.191 186.356 123.194L175.998 123.46C175.912 123.463 175.826 123.474 175.742 123.492C175.515 123.534 175.3 123.624 175.11 123.756C174.921 123.889 174.763 124.06 174.645 124.258C174.528 124.456 174.454 124.678 174.43 124.907C174.406 125.136 174.431 125.367 174.504 125.586L176.304 138.767ZM187.278 127.665L187.956 125.244C188.033 124.965 188.035 124.67 187.961 124.389C187.994 124.389 188.023 124.374 188.056 124.374C188.521 124.364 188.971 124.539 189.307 124.859C189.643 125.18 189.837 125.62 189.848 126.083C189.859 126.547 189.685 126.995 189.365 127.331C189.044 127.667 188.603 127.862 188.138 127.875C187.837 127.884 187.54 127.811 187.278 127.665Z" fill="#2F2E41"/>
<path d="M175.742 123.492C175.963 124.75 178.444 125.634 181.427 125.48C184.171 125.354 186.414 124.394 186.825 123.256C186.673 123.211 186.515 123.19 186.356 123.194L175.998 123.46C175.912 123.463 175.826 123.474 175.742 123.492Z" fill="#3F3D56"/>
<path d="M181.974 133.186C181.988 133.182 182.001 133.177 182.012 133.169L183.475 132.215C183.493 132.203 183.507 132.188 183.517 132.169C183.527 132.151 183.532 132.13 183.532 132.109C183.532 132.088 183.527 132.067 183.517 132.049C183.507 132.03 183.493 132.014 183.475 132.003L181.955 131.01C181.941 131.001 181.925 130.995 181.909 130.992C181.893 130.989 181.876 130.989 181.859 130.992C181.843 130.995 181.827 131.002 181.813 131.011C181.8 131.021 181.788 131.033 181.779 131.047C181.769 131.061 181.763 131.076 181.76 131.093C181.757 131.109 181.757 131.126 181.761 131.142C181.764 131.158 181.771 131.174 181.78 131.188C181.79 131.201 181.802 131.213 181.816 131.222L183.173 132.109L181.873 132.957C181.848 132.973 181.83 132.998 181.821 133.027C181.813 133.056 181.814 133.086 181.827 133.114C181.839 133.141 181.86 133.164 181.887 133.177C181.914 133.19 181.945 133.193 181.974 133.186Z" fill="#6C63FF"/>
<path d="M179.664 133.292C179.689 133.286 179.711 133.272 179.728 133.254C179.745 133.235 179.756 133.211 179.759 133.186C179.763 133.161 179.758 133.136 179.747 133.113C179.736 133.091 179.718 133.072 179.696 133.059L178.348 132.289L179.651 131.324C179.665 131.314 179.676 131.302 179.685 131.287C179.693 131.273 179.699 131.257 179.701 131.241C179.704 131.225 179.703 131.208 179.699 131.192C179.695 131.176 179.687 131.16 179.678 131.147C179.668 131.134 179.655 131.122 179.641 131.114C179.626 131.105 179.611 131.1 179.594 131.097C179.578 131.095 179.561 131.096 179.545 131.1C179.528 131.104 179.513 131.111 179.5 131.121L178.041 132.201C178.024 132.213 178.011 132.23 178.002 132.249C177.993 132.268 177.989 132.289 177.99 132.31C177.991 132.331 177.998 132.351 178.009 132.369C178.02 132.387 178.035 132.402 178.054 132.412L179.57 133.279C179.599 133.295 179.632 133.3 179.664 133.292Z" fill="#6C63FF"/>
<path d="M181.829 134.022C181.841 134.019 181.853 134.014 181.863 134.007C181.878 133.999 181.89 133.987 181.9 133.974C181.91 133.96 181.917 133.945 181.921 133.929C181.925 133.913 181.926 133.896 181.923 133.88C181.921 133.863 181.915 133.847 181.906 133.833L179.833 130.436C179.815 130.407 179.787 130.386 179.754 130.379C179.722 130.371 179.687 130.376 179.658 130.394C179.63 130.411 179.609 130.439 179.601 130.472C179.593 130.504 179.598 130.539 179.616 130.568L181.689 133.965C181.703 133.988 181.724 134.006 181.749 134.016C181.775 134.027 181.802 134.028 181.829 134.022Z" fill="#6C63FF"/>
<path d="M65.2855 93.089H54.0527C53.5945 93.089 53.223 93.4593 53.223 93.9161V95.01C53.223 95.4668 53.5945 95.8371 54.0527 95.8371H65.2855C65.7437 95.8371 66.1152 95.4668 66.1152 95.01V93.9161C66.1152 93.4593 65.7437 93.089 65.2855 93.089Z" fill="#6C63FF"/>
<path d="M71.833 98.5852H47.5052C47.047 98.5852 46.6755 98.9555 46.6755 99.4123V100.506C46.6755 100.963 47.047 101.333 47.5052 101.333H71.833C72.2912 101.333 72.6627 100.963 72.6627 100.506V99.4123C72.6627 98.9555 72.2912 98.5852 71.833 98.5852Z" fill="#E6E6E6"/>
<path d="M71.833 104.081H47.5052C47.047 104.081 46.6755 104.452 46.6755 104.909V106.002C46.6755 106.459 47.047 106.83 47.5052 106.83H71.833C72.2912 106.83 72.6627 106.459 72.6627 106.002V104.909C72.6627 104.452 72.2912 104.081 71.833 104.081Z" fill="#E6E6E6"/>
<path d="M73.8952 122.486L73.9503 122.66L73.9532 122.665L75.6118 127.692L77.5198 133.484L81.1097 144.37L81.1444 146.061V146.067L81.4112 159.67L80.6718 161.514L81.504 164.537C81.504 164.537 81.1212 159.967 79.0683 162.591C77.9055 164.083 76.5456 165.609 75.4292 167.04C77.0559 167.696 78.7087 168.29 80.3876 168.82C80.7501 168.936 81.1155 169.046 81.4808 169.156C81.5591 169.179 81.6374 169.202 81.7157 169.225C87.2811 170.866 93.0347 171.788 98.8355 171.968C99.137 171.977 99.4328 171.983 99.7199 171.988C99.8214 171.991 99.92 171.994 100.019 171.994C100.343 171.997 100.665 172 100.99 172C101.645 172 102.298 171.99 102.947 171.971C107.755 171.836 112.534 171.192 117.205 170.049C117.173 168.127 117.086 165.881 116.961 163.482C116.903 162.305 115.601 161.031 115.523 159.799C115.468 158.874 116.637 158.004 116.576 157.065C116.181 151.281 115.688 153.501 115.323 149.405C115.285 149.004 115.251 148.619 115.219 148.252C114.984 145.622 114.821 143.977 114.821 143.977L116.381 134.175L118.832 118.786L118.643 118.477L118.432 118.373L105.508 111.996L104.806 110.204C104.601 109.688 104.247 109.245 103.787 108.931C103.328 108.617 102.785 108.448 102.228 108.444L93.7146 108.409C93.2728 108.407 92.8369 108.51 92.443 108.71C92.0491 108.91 91.7087 109.2 91.4499 109.557L89.1447 112.739L73.8952 122.486Z" fill="#3F3D56"/>
<path d="M83.0728 141.948L81.1444 146.061L79.828 148.871L77.5634 160.69L76.4296 161.889L75.4582 157.643L65.2912 159.893C64.9578 158.046 65.202 159.956 64.9961 157.929C65.0541 157.872 65.115 157.814 65.1759 157.756C65.3382 157.606 65.4745 157.464 65.4716 157.328C65.3556 150.339 65.7036 138.445 68.6091 131.239C69.0642 130.062 69.6641 128.946 70.3953 127.917C70.4533 127.839 70.5084 127.761 70.5635 127.683C71.9031 125.813 72.7498 123.972 73.9503 122.662V122.66C73.9578 122.654 73.9646 122.647 73.9706 122.639C73.975 122.637 73.9789 122.634 73.9822 122.631L82.2289 118.272L82.5827 128.18L82.835 135.303L83.0728 141.948Z" fill="#3F3D56"/>
<path d="M112.809 143.116L115.218 148.253L116.058 150.043L118.322 161.861L119.452 163.057L120.426 158.812L120.883 158.718L129.134 157.015L131.539 164.628C132.081 163.728 132.294 162.669 132.143 161.63C131.992 160.591 131.486 159.635 130.71 158.926C130.546 158.778 130.409 158.633 130.413 158.497C130.549 150.276 130.045 135.266 125.49 129.088C124.043 127.127 123.175 125.174 121.912 123.81C121.908 123.806 121.908 123.802 121.904 123.802L118.831 118.786L118.643 118.478L118.432 118.373L112.809 143.116Z" fill="#3F3D56"/>
<path d="M98.2173 105.994C104.473 105.994 109.543 100.939 109.543 94.7039C109.543 88.4684 104.473 83.4136 98.2173 83.4136C91.962 83.4136 86.8911 88.4684 86.8911 94.7039C86.8911 100.939 91.962 105.994 98.2173 105.994Z" fill="#FFB6B6"/>
<path d="M113.526 86.8177C113.438 86.7242 113.332 86.6493 113.215 86.5975C113.097 86.5457 112.971 86.518 112.842 86.5162L113.012 86.0449C113.068 85.8964 113.083 85.7359 113.056 85.5798C113.029 85.4236 112.961 85.2775 112.858 85.1563C112.756 85.0352 112.623 84.9433 112.473 84.8902C112.323 84.837 112.162 84.8245 112.006 84.854L111.386 84.9731L111.444 84.56C111.467 84.4062 111.448 84.2492 111.391 84.1045C111.335 83.9598 111.241 83.8323 111.12 83.7347C110.998 83.637 110.854 83.5725 110.7 83.5475C110.546 83.5225 110.388 83.5379 110.242 83.5921C110.109 83.6443 109.966 83.6661 109.823 83.656C109.681 83.646 109.542 83.6042 109.418 83.5339C109.294 83.4656 109.185 83.3711 109.101 83.2569C109.017 83.1427 108.958 83.0115 108.93 82.8725L108.714 81.8336L108.691 81.7779C107.639 80.0296 105.616 78.7576 103.14 78.2914C100.936 77.8733 98.6763 78.0861 96.4979 78.2863C95.6336 78.3674 94.6576 78.4586 93.8442 78.9552C93.1528 79.3809 92.5681 80.2323 92.6876 81.0912C90.5397 80.435 88.2368 81.745 87.0955 83.397C85.7432 85.3633 85.522 87.8261 85.4865 89.7518C85.3899 94.3077 86.3329 98.0349 88.2825 100.832C88.4249 101.035 88.4605 101.458 88.7426 101.6L88.6841 101.506C88.9993 101.663 89.3196 101.917 89.2001 102.188C88.857 102.968 91.137 104.694 92.7435 105.264C95.6743 106.305 99.571 106.217 102.311 105.842L102.408 105.195C103.397 105.061 104.093 104.805 104.289 104.405C104.634 104.111 104.929 103.847 105.186 103.604L105.189 103.602C105.194 103.597 105.204 103.589 105.209 103.584C106.447 102.401 106.734 101.727 106.864 100.701C106.988 99.6946 106.767 98.6734 106.541 97.7537C111.304 98.4885 104.665 92.6962 109.103 91.5762C109.154 91.5606 109.206 91.5479 109.258 91.5382C109.388 91.5078 109.517 91.4774 109.642 91.4419C110.242 91.2795 110.817 91.0347 111.35 90.7147C112.59 89.9622 113 88.9638 113.64 87.8388C113.733 87.6786 113.771 87.4932 113.751 87.3096C113.73 87.1259 113.652 86.9536 113.526 86.8177Z" fill="#2F2E41"/>
<path d="M138.276 143.92C138.274 144.363 138.269 144.984 138.248 145.752C138.246 145.858 138.243 145.967 138.241 146.079C138.208 147.49 138.174 148.673 138.121 149.988C138.119 150.08 138.116 150.168 138.111 150.26C138.04 152.094 137.928 154.23 137.735 157.613C137.376 163.861 136.751 158.472 136.123 160.663C136.093 160.772 136.06 160.902 136.029 161.054C135.934 161.605 135.774 162.144 135.551 162.658C135.218 162.855 134.875 163.045 134.537 163.235C133.574 163.77 132.595 164.284 131.609 164.773C131.055 165.047 130.498 165.316 129.939 165.574C129.85 165.615 129.763 165.655 129.677 165.693C126.813 167.013 123.862 168.136 120.844 169.053C120.254 169.23 119.667 169.403 119.072 169.562C118.452 169.735 117.832 169.897 117.204 170.049C112.533 171.192 107.754 171.836 102.947 171.972C102.298 171.992 101.645 172 100.989 172C100.664 172 100.344 171.997 100.018 171.995C99.9192 171.995 99.8201 171.992 99.721 171.99C99.4337 171.982 99.1363 171.977 98.8364 171.969C93.0356 171.789 87.282 170.867 81.7169 169.225L81.4805 169.157C81.1144 169.045 80.7509 168.936 80.3875 168.82C78.7098 168.29 77.0567 167.697 75.4282 167.041C74.1853 166.542 72.9567 166.006 71.7425 165.435C71.7314 165.432 71.7211 165.426 71.712 165.419C71.4578 165.303 71.2011 165.181 70.9469 165.057C70.9139 165.039 70.8783 165.022 70.8427 165.004C69.8946 164.543 68.9566 164.06 68.0288 163.555C67.2485 161.768 66.1504 161.426 65.4692 159.855C65.2709 159.388 65.1276 158.9 65.0421 158.401C65.0421 158.396 65.0396 158.391 65.0396 158.383C65.1108 159.326 64.7371 156.711 65.0371 158.373C65.0345 158.342 65.032 158.309 65.0294 158.271C65.0218 158.18 65.0117 158.069 64.9964 157.929C64.1245 149.444 64.1805 139.739 63.8017 131.742C63.7763 131.225 63.75 130.731 63.7229 130.258C63.7153 130.1 63.7051 129.946 63.6949 129.794C63.7127 129.748 63.7331 129.7 63.7559 129.654C63.7608 129.641 63.7668 129.629 63.7737 129.616C63.7812 129.601 63.7897 129.586 63.7992 129.571C63.8042 129.563 63.8119 129.553 63.817 129.546C63.8207 129.537 63.8249 129.528 63.8297 129.52C63.8525 129.485 63.878 129.447 63.9059 129.411C63.9186 129.396 63.9288 129.383 63.9415 129.371C63.9503 129.358 63.9605 129.346 63.972 129.335C63.9798 129.323 63.9892 129.312 64 129.302C64.0101 129.292 64.0203 129.279 64.033 129.267C64.0384 129.259 64.0454 129.252 64.0534 129.247C64.0735 129.224 64.0956 129.202 64.1194 129.183C64.2101 129.1 64.307 129.024 64.4092 128.955C64.4448 128.932 64.4829 128.91 64.5185 128.884C64.7747 128.731 65.0444 128.603 65.3243 128.499C65.4209 128.464 65.5175 128.431 65.6217 128.395C65.6598 128.385 65.6954 128.372 65.7335 128.36C65.7895 128.342 65.8454 128.324 65.9038 128.312C66.1936 128.225 66.5063 128.152 66.8443 128.084C66.885 128.076 66.9282 128.068 66.9714 128.058C67.0324 128.046 67.096 128.035 67.1595 128.025C67.246 128.01 67.3349 127.995 67.4239 127.98C68.1788 127.861 69.0354 127.772 69.981 127.714C70.07 127.709 70.1589 127.703 70.2479 127.698C70.3521 127.693 70.4563 127.688 70.5631 127.683C70.6521 127.678 70.7436 127.676 70.8351 127.673C70.924 127.668 71.0155 127.665 71.1096 127.663C71.3663 127.655 71.6307 127.648 71.9001 127.643C72.6678 127.627 73.4761 127.633 74.3251 127.65C74.7191 127.66 75.1207 127.671 75.5325 127.688C75.5604 127.688 75.5859 127.691 75.6113 127.691C75.9697 127.703 76.3306 127.719 76.7017 127.739C76.961 127.752 77.2228 127.764 77.4846 127.779C77.7312 127.795 77.9803 127.81 78.2319 127.828C78.4277 127.838 78.6234 127.853 78.8216 127.866C78.9894 127.878 79.1572 127.891 79.3249 127.901L79.5537 127.916C79.6783 127.926 79.8028 127.934 79.9299 127.947C80.2095 127.97 80.4891 127.992 80.7738 128.015C81.056 128.04 81.3432 128.066 81.6304 128.091C81.9177 128.116 82.2074 128.144 82.4972 128.172C82.5277 128.175 82.5557 128.177 82.5836 128.18C82.848 128.208 83.1123 128.233 83.3792 128.261C83.4402 128.266 83.5038 128.271 83.5648 128.279C83.8193 128.304 84.0787 128.334 84.3355 128.361C84.4143 128.37 84.4927 128.378 84.5717 128.386C84.7729 128.408 84.9712 128.427 85.1738 128.451C85.4407 128.481 85.7127 128.509 85.977 128.545C86.1829 128.567 86.3888 128.59 86.5947 128.616C86.9175 128.654 87.2454 128.694 87.5733 128.737C87.6979 128.752 87.8224 128.768 87.947 128.785C88.8824 128.902 89.828 129.031 90.7888 129.165C92.2453 129.371 93.7246 129.594 95.2142 129.834C96.7063 130.075 98.2068 130.329 99.7159 130.597C100.097 130.666 100.478 130.734 100.862 130.805C101.035 130.838 101.208 130.871 101.381 130.904C101.676 130.957 101.97 131.013 102.265 131.068C102.56 131.124 102.855 131.18 103.15 131.238C103.501 131.307 103.854 131.375 104.205 131.443C106.515 131.899 108.813 132.386 111.055 132.895C111.424 132.979 111.792 133.065 112.158 133.149C112.89 133.318 113.616 133.491 114.334 133.666C114.532 133.711 114.728 133.759 114.924 133.807C115.412 133.929 115.9 134.051 116.38 134.175L116.464 134.198C116.818 134.284 117.163 134.372 117.509 134.464C118.325 134.677 119.127 134.892 119.916 135.11C120.44 135.254 120.957 135.4 121.469 135.548C122.234 135.769 122.984 135.992 123.714 136.217C123.894 136.273 124.075 136.329 124.253 136.382C124.786 136.546 125.313 136.714 125.823 136.881C126.23 137.013 126.627 137.147 127.018 137.281C127.41 137.416 127.793 137.55 128.17 137.684C128.411 137.77 128.65 137.862 128.889 137.948C129.232 138.074 129.57 138.201 129.901 138.328C130.002 138.366 130.101 138.406 130.201 138.444C130.264 138.472 130.325 138.495 130.386 138.52C130.506 138.568 130.628 138.614 130.745 138.662C130.864 138.708 130.981 138.756 131.098 138.807C131.212 138.852 131.329 138.9 131.441 138.949C131.555 138.994 131.667 139.042 131.779 139.093C131.873 139.131 131.965 139.172 132.054 139.212C132.234 139.291 132.415 139.369 132.59 139.45C132.676 139.491 132.763 139.529 132.849 139.569L133.048 139.661C133.075 139.676 133.103 139.688 133.131 139.701C133.195 139.732 133.261 139.764 133.325 139.795C133.472 139.863 133.617 139.937 133.759 140.005C133.95 140.101 134.135 140.198 134.313 140.291C134.494 140.388 134.669 140.484 134.837 140.578C134.865 140.593 134.89 140.608 134.918 140.623C134.956 140.644 134.995 140.666 135.033 140.687C135.162 140.76 135.287 140.836 135.411 140.91C135.655 141.059 135.887 141.206 136.103 141.353C136.151 141.386 136.197 141.419 136.245 141.449C136.405 141.563 136.558 141.675 136.7 141.789C136.7 141.791 136.7 141.791 136.703 141.791C136.751 141.827 136.797 141.865 136.843 141.9C136.881 141.936 136.921 141.966 136.959 142.002C137.092 142.116 137.214 142.225 137.325 142.336C137.363 142.371 137.399 142.407 137.432 142.445C137.447 142.457 137.461 142.471 137.473 142.486C137.524 142.536 137.569 142.587 137.613 142.638C137.619 142.645 137.625 142.652 137.631 142.661C137.692 142.732 137.747 142.802 137.801 142.873C137.826 142.909 137.854 142.944 137.877 142.98C137.908 143.023 137.938 143.069 137.963 143.112C137.986 143.147 138.007 143.185 138.027 143.221C138.081 143.312 138.127 143.408 138.164 143.507C138.193 143.574 138.216 143.644 138.233 143.715C138.252 143.782 138.267 143.851 138.276 143.92Z" fill="#2F2E41"/>
<path opacity="0.2" d="M138.276 143.92C138.274 144.363 138.269 144.984 138.248 145.752C138.246 145.858 138.241 145.967 138.238 146.079C138.213 147.156 138.175 148.486 138.121 149.988C138.119 150.08 138.116 150.168 138.111 150.26C138.04 152.094 137.928 154.23 137.735 157.613C137.376 163.861 136.751 158.472 136.123 160.663C134.379 159.594 132.468 158.474 130.424 157.324C130.056 157.116 129.684 156.907 129.308 156.698C125.221 154.425 120.656 152.043 115.89 149.684C115.702 149.591 115.511 149.497 115.323 149.406C104.406 144.026 92.4893 138.794 82.8353 135.302C80.9721 134.628 79.1928 134.02 77.5202 133.486C73.9972 132.363 70.952 131.578 68.6084 131.238C66.1682 130.883 64.4829 131.01 63.8017 131.742C63.7763 131.225 63.75 130.731 63.7229 130.258C63.7127 130.1 63.7026 129.946 63.6924 129.794C63.7081 129.752 63.7285 129.712 63.7482 129.672C63.751 129.666 63.753 129.66 63.7559 129.654C63.7608 129.641 63.7668 129.629 63.7737 129.616C63.7812 129.601 63.7897 129.586 63.7992 129.571C63.8074 129.553 63.8177 129.536 63.8297 129.52C63.8525 129.485 63.878 129.447 63.9059 129.411C63.9265 129.385 63.9485 129.359 63.972 129.335C63.9798 129.323 63.9892 129.312 64 129.302C64.0101 129.292 64.0203 129.279 64.033 129.267C64.0384 129.259 64.0453 129.252 64.0533 129.247C64.0735 129.224 64.0956 129.202 64.1194 129.183C64.2101 129.1 64.307 129.024 64.4092 128.955C64.4448 128.932 64.4829 128.91 64.5185 128.884C64.7747 128.731 65.0444 128.603 65.3243 128.499C65.4209 128.464 65.5175 128.431 65.6217 128.395C65.6598 128.385 65.6954 128.372 65.7335 128.36C65.7894 128.342 65.8454 128.324 65.9038 128.312C66.1936 128.225 66.5063 128.152 66.8443 128.084C66.946 128.063 67.0528 128.043 67.1595 128.025C67.2459 128.01 67.3349 127.995 67.4239 127.98C68.1788 127.861 69.0354 127.772 69.981 127.714C70.07 127.709 70.1589 127.703 70.2479 127.698C70.3521 127.693 70.4563 127.688 70.5631 127.683C70.6521 127.678 70.7436 127.676 70.8351 127.673C70.924 127.668 71.0156 127.665 71.1096 127.663C71.3663 127.655 71.6307 127.648 71.9001 127.643C72.6678 127.63 73.4761 127.635 74.3251 127.653C74.7191 127.66 75.1207 127.673 75.5325 127.691C75.5579 127.691 75.5858 127.693 75.6113 127.693C75.9697 127.703 76.3332 127.721 76.7017 127.739C76.961 127.752 77.2228 127.764 77.4846 127.779C77.7312 127.795 77.9803 127.81 78.2319 127.828C78.4277 127.838 78.6234 127.853 78.8216 127.866C78.9894 127.878 79.1572 127.891 79.3249 127.901C79.5257 127.916 79.7266 127.931 79.9299 127.947C80.2095 127.97 80.4891 127.992 80.7738 128.015C81.056 128.04 81.3432 128.066 81.6304 128.091C81.9177 128.116 82.2074 128.144 82.4972 128.172C82.5277 128.175 82.5557 128.177 82.5836 128.18C82.848 128.208 83.1123 128.233 83.3792 128.261C84.8586 128.41 86.3812 128.585 87.947 128.785C88.8824 128.904 89.8297 129.032 90.7888 129.168C92.2453 129.373 93.7247 129.596 95.2142 129.834C96.7063 130.075 98.2069 130.329 99.7159 130.597C100.097 130.665 100.478 130.734 100.862 130.805C101.33 130.891 101.798 130.979 102.265 131.068C102.56 131.124 102.855 131.18 103.15 131.238C103.501 131.307 103.854 131.375 104.205 131.443C106.515 131.899 108.813 132.386 111.055 132.895C111.424 132.979 111.792 133.065 112.158 133.149C112.89 133.318 113.616 133.491 114.334 133.666C114.532 133.714 114.728 133.762 114.924 133.81C115.415 133.932 115.9 134.053 116.38 134.175V134.177C116.408 134.182 116.436 134.19 116.464 134.198C116.815 134.286 117.163 134.375 117.509 134.466C118.325 134.679 119.127 134.894 119.916 135.11C120.44 135.257 120.958 135.401 121.469 135.548C122.234 135.771 122.984 135.994 123.714 136.217C123.894 136.273 124.075 136.329 124.253 136.382C124.786 136.549 125.31 136.715 125.824 136.881C126.23 137.013 126.627 137.147 127.018 137.281C127.41 137.416 127.793 137.55 128.17 137.684C128.414 137.77 128.653 137.859 128.889 137.945C129.235 138.072 129.57 138.199 129.901 138.328C130.002 138.366 130.101 138.406 130.201 138.444C130.386 138.515 130.567 138.589 130.745 138.662C130.864 138.708 130.981 138.756 131.098 138.807C131.212 138.852 131.329 138.9 131.441 138.949C131.555 138.994 131.667 139.042 131.779 139.093C131.873 139.131 131.965 139.172 132.054 139.212C132.234 139.291 132.415 139.369 132.59 139.45C132.676 139.491 132.763 139.529 132.849 139.569L133.048 139.661C133.075 139.676 133.103 139.688 133.131 139.701C133.347 139.802 133.556 139.904 133.759 140.005C133.95 140.101 134.135 140.198 134.313 140.291C134.524 140.403 134.725 140.512 134.918 140.623C134.956 140.644 134.995 140.666 135.033 140.687C135.162 140.76 135.287 140.836 135.411 140.91C135.655 141.059 135.887 141.206 136.103 141.353C136.316 141.5 136.515 141.645 136.7 141.789C136.7 141.791 136.7 141.791 136.703 141.791C136.792 141.862 136.878 141.933 136.959 142.002C137.092 142.116 137.214 142.225 137.325 142.336C137.363 142.371 137.399 142.407 137.432 142.445C137.447 142.457 137.461 142.471 137.473 142.486C137.526 142.544 137.58 142.602 137.631 142.661C137.692 142.732 137.747 142.802 137.801 142.873C137.826 142.909 137.854 142.944 137.877 142.98C137.908 143.023 137.938 143.069 137.964 143.112C137.986 143.147 138.007 143.185 138.027 143.221C138.081 143.312 138.127 143.408 138.164 143.507C138.192 143.574 138.215 143.644 138.233 143.715C138.252 143.782 138.267 143.851 138.276 143.92Z" fill="black"/>
</g>
<defs>
<clipPath id="clip0_6_151">
<rect width="200" height="145" fill="white" transform="translate(0 27)"/>
</clipPath>
</defs>
</svg>
