<svg width="200" height="200" viewBox="0 0 200 200" fill="none" xmlns="http://www.w3.org/2000/svg">
<g clip-path="url(#clip0_6_114)">
<path d="M36.189 128.817C36.3419 129.081 36.5455 129.312 36.788 129.498C37.0305 129.684 37.3072 129.819 37.6022 129.898C37.8973 129.976 38.2049 129.996 38.5076 129.955C38.8102 129.915 39.1019 129.815 39.3659 129.662C39.6299 129.508 39.8611 129.305 40.0463 129.062C40.2315 128.819 40.3669 128.542 40.445 128.247C40.5231 127.952 40.5422 127.644 40.5012 127.341C40.4602 127.039 40.36 126.747 40.2063 126.484C40.1414 126.375 40.0682 126.271 39.9875 126.173L41.9415 112.246L42.0001 111.829L42.397 108.987L42.4555 108.577L42.2392 108.587L38.4534 108.76L37.4382 108.806L37.311 111.399L36.591 125.975C36.2148 126.335 35.9706 126.811 35.8977 127.326C35.8248 127.842 35.9274 128.367 36.189 128.817Z" fill="#FFB8B8"/>
<path d="M41.9888 111.955L37.1816 111.514C36.9323 111.491 36.7024 111.369 36.5421 111.177C36.3817 110.985 36.3039 110.737 36.3257 110.487L37.2174 100.49C37.2606 100.005 37.4007 99.5326 37.6296 99.1022C37.8584 98.6717 38.1713 98.2916 38.5496 97.9842C38.9279 97.6768 39.3641 97.4485 39.8322 97.3126C40.3004 97.1768 40.791 97.1363 41.2752 97.1934C41.7593 97.2506 42.227 97.4042 42.6506 97.6453C43.0743 97.8864 43.4453 98.2101 43.7417 98.5971C44.038 98.9841 44.2538 99.4267 44.3761 99.8985C44.4984 100.37 44.5249 100.862 44.4538 101.344L43.0124 111.15C42.9793 111.375 42.8666 111.58 42.6948 111.728C42.523 111.877 42.3036 111.959 42.0765 111.959C42.0475 111.959 42.0182 111.958 41.9888 111.955Z" fill="#6C63FF"/>
<path d="M38.3456 103.878C37.8594 102.501 37.8369 101.003 38.2815 99.6113C38.726 98.2201 39.6133 97.0124 40.8081 96.1723C42.6208 94.9319 45.1014 94.4867 47.7729 97.667C53.1157 104.028 54.5151 111.025 54.5151 111.025L43.5749 112.806C43.5749 112.806 39.854 108.258 38.3456 103.878Z" fill="#6C63FF"/>
<g opacity="0.2">
<path d="M45.231 96.1405C44.423 98.367 43.5978 100.683 43.5444 103.169C43.4911 105.068 43.9293 106.949 44.8164 108.63C45.6737 110.184 46.9257 111.32 48.304 111.795C48.5628 111.905 48.8479 111.937 49.1246 111.887C49.2783 111.844 49.418 111.761 49.5298 111.647C49.6416 111.533 49.7216 111.392 49.7618 111.237C49.8865 110.799 49.7366 110.312 49.5892 109.887C47.9537 105.17 47.1609 101.072 45.5254 96.3553L45.231 96.1405Z" fill="black"/>
</g>
<path d="M56.0394 175.527L59.1586 175.527L60.6424 163.495L56.0388 163.496L56.0394 175.527Z" fill="#FFB8B8"/>
<path d="M65.1742 178.423L55.3712 178.423L55.371 174.636L61.3865 174.636C61.8839 174.636 62.3764 174.733 62.8359 174.924C63.2955 175.114 63.713 175.393 64.0647 175.745C64.4165 176.097 64.6955 176.514 64.8858 176.974C65.0762 177.433 65.1742 177.926 65.1742 178.423Z" fill="#2F2E41"/>
<path d="M30.3952 172.806L33.3569 173.785L38.542 162.828L34.1708 161.383L30.3952 172.806Z" fill="#FFB8B8"/>
<path d="M38.1594 178.423L28.8516 175.347L30.0403 171.751L35.7519 173.638C36.7057 173.954 37.4951 174.635 37.9466 175.532C38.3981 176.43 38.4747 177.47 38.1594 178.423Z" fill="#2F2E41"/>
<path d="M45.2126 93.0177C48.6638 93.0177 51.4615 90.2199 51.4615 86.7687C51.4615 83.3174 48.6638 80.5197 45.2126 80.5197C41.7615 80.5197 38.9638 83.3174 38.9638 86.7687C38.9638 90.2199 41.7615 93.0177 45.2126 93.0177Z" fill="#FFB8B8"/>
<path d="M50.684 172.178L47.7872 153.059C47.7563 152.855 47.6555 152.668 47.502 152.53C47.3485 152.392 47.1519 152.311 46.9457 152.302C46.7395 152.293 46.5366 152.356 46.3716 152.48C46.2067 152.604 46.0899 152.782 46.0414 152.982L41.6302 171.203C41.5607 171.482 41.3894 171.725 41.1499 171.884C40.9104 172.043 40.6201 172.107 40.3358 172.064L28.168 170.108C28.0067 170.082 27.8528 170.022 27.7166 169.932C27.5805 169.841 27.4652 169.723 27.3786 169.584C27.2921 169.446 27.2361 169.29 27.2146 169.128C27.1932 168.966 27.2066 168.801 27.254 168.645L43.12 116.336C43.1651 116.187 43.1704 116.029 43.1355 115.877L42.6072 113.588C42.5492 113.34 42.576 113.08 42.6833 112.848C42.7906 112.617 42.9722 112.428 43.1992 112.313C45.3597 111.21 50.8306 108.918 54.9614 111.429C55.0955 111.511 55.2115 111.619 55.3025 111.747C55.3934 111.875 55.4574 112.02 55.4904 112.173L67.8849 170.429C67.9186 170.587 67.9183 170.751 67.8841 170.909C67.8498 171.068 67.7824 171.217 67.6862 171.347C67.59 171.477 67.4673 171.586 67.3261 171.665C67.1849 171.745 67.0285 171.793 66.8672 171.808L51.9181 173.146C51.8836 173.149 51.8494 173.151 51.8155 173.151C51.5418 173.15 51.2773 173.052 51.0698 172.873C50.8623 172.695 50.7254 172.448 50.684 172.178Z" fill="#2F2E41"/>
<path d="M60.5752 124.582C60.7238 124.279 60.8041 123.947 60.8105 123.609C60.8169 123.272 60.7492 122.937 60.6122 122.628C60.4752 122.32 60.2721 122.045 60.0174 121.823C59.7627 121.602 59.4625 121.438 59.1379 121.345L51.3289 105.386L47.3006 108.386L56.214 123.083C56.0938 123.638 56.1816 124.219 56.4607 124.714C56.7398 125.209 57.1909 125.585 57.7285 125.77C58.2661 125.954 58.8528 125.936 59.3774 125.717C59.9021 125.498 60.3282 125.094 60.5752 124.582Z" fill="#FFB8B8"/>
<path d="M46.8109 109.382L41.9516 100.602C41.6576 100.074 41.4999 99.4817 41.4926 98.8776C41.4854 98.2735 41.6289 97.6772 41.9102 97.1425C42.1402 96.6924 42.4655 96.2978 42.8636 95.9862C43.3768 95.5773 43.9908 95.3144 44.6409 95.2252C45.291 95.1361 45.9531 95.2239 46.5574 95.4795C47.398 95.845 48.0757 96.5056 48.4624 97.3366L52.7219 106.188C52.827 106.407 52.8444 106.657 52.7705 106.888C52.6966 107.119 52.5371 107.313 52.3247 107.429L48.0959 109.754C47.8761 109.874 47.6175 109.903 47.3767 109.833C47.1359 109.764 46.9325 109.601 46.8109 109.382Z" fill="#6C63FF"/>
<path d="M42.11 81.3144C42.6289 81.1333 43.1124 80.863 43.5385 80.5157C43.7497 80.3394 43.9119 80.1118 44.0097 79.8546C44.1075 79.5975 44.1375 79.3195 44.0968 79.0475C43.9299 78.3012 43.0566 77.8936 42.2965 77.9776C41.5364 78.0616 40.8703 78.5044 40.2379 78.9343C39.6809 79.3131 39.1064 79.7098 38.7592 80.287C38.412 80.8642 38.359 81.6768 38.8207 82.1673C39.2738 82.6486 40.0681 82.6559 40.6613 82.3643C41.2545 82.0726 41.6935 81.5478 42.1141 81.0378L42.11 81.3144Z" fill="#2F2E41"/>
<path d="M40.4018 79.1392C40.7274 77.4084 39.0206 75.7627 37.2602 75.7141C35.4998 75.6656 33.8938 76.8402 32.9081 78.2996C30.8256 81.3831 31.0586 85.4457 31.6801 89.1143C32.3017 92.783 33.2282 96.5688 32.2755 100.166C31.7344 102.105 30.6796 103.861 29.2226 105.25C27.7656 106.639 25.9606 107.609 23.9982 108.057C25.732 109.324 28.2078 108.905 30.0992 107.887C34.2996 105.628 36.795 100.566 36.0292 95.8578C35.6515 93.5358 34.5792 91.393 33.8603 89.153C33.1414 86.913 32.7998 84.3787 33.8512 82.2742C34.9026 80.1697 37.7764 78.8871 39.7316 80.1952L40.4018 79.1392Z" fill="#2F2E41"/>
<path d="M45.0651 89.2738C44.7199 88.2613 44.4283 86.966 45.5676 86.3817C45.8137 86.2624 46.0811 86.1935 46.3541 86.1791C46.6272 86.1646 46.9004 86.2049 47.1577 86.2976C48.229 86.6593 49.4142 86.9635 50.5611 86.7862C50.9887 86.7321 51.401 86.5927 51.7736 86.3762C52.1463 86.1596 52.4716 85.8705 52.7303 85.5258C53.5508 84.3393 53.193 82.6148 52.2167 81.5528C51.6155 80.9214 50.8414 80.4815 49.9912 80.2884C49.1411 80.0953 48.2529 80.1576 47.438 80.4673C46.0882 79.5005 44.2232 79.4161 42.6838 80.0384C41.1445 80.6606 39.9181 81.9156 39.0935 83.3568C38.3534 84.5909 37.9747 86.0081 38.0004 87.4469C38.0524 88.4551 38.3466 89.4358 38.858 90.3061C39.3694 91.1764 40.0829 91.9107 40.9383 92.4467C41.2696 92.6643 41.6524 92.7911 42.0482 92.8142C42.4439 92.8373 42.8388 92.756 43.1933 92.5785C43.1933 92.5785 44.1899 92.0184 44.6387 91.1869C44.9833 90.5483 45.2496 89.8147 45.0651 89.2738Z" fill="#2F2E41"/>
<path d="M98.1892 179H1.25442C1.18695 179 1.12223 178.973 1.07452 178.925C1.0268 178.878 1 178.813 1 178.746C1 178.678 1.0268 178.613 1.07452 178.566C1.12223 178.518 1.18695 178.491 1.25442 178.491H98.1892C98.2567 178.491 98.3214 178.518 98.3691 178.566C98.4168 178.613 98.4436 178.678 98.4436 178.746C98.4436 178.813 98.4168 178.878 98.3691 178.925C98.3214 178.973 98.2567 179 98.1892 179Z" fill="#3F3D56"/>
<path d="M156.244 118.791H125.423C124.584 118.79 123.779 118.457 123.186 117.863C122.593 117.27 122.259 116.466 122.258 115.627V66.052C122.259 65.2129 122.593 64.4085 123.186 63.8152C123.779 63.2219 124.584 62.8882 125.423 62.8873H156.244V118.791ZM125.423 63.3961C124.719 63.3969 124.044 63.677 123.546 64.1749C123.048 64.6727 122.768 65.3478 122.767 66.052V115.627C122.768 116.331 123.048 117.006 123.546 117.504C124.044 118.002 124.719 118.282 125.423 118.282H155.735V63.3961H125.423Z" fill="#3F3D56"/>
<path d="M155.447 62.8873H186.269C187.108 62.8882 187.912 63.2219 188.505 63.8152C189.099 64.4085 189.432 65.2129 189.433 66.052V115.627C189.432 116.466 189.099 117.27 188.505 117.863C187.912 118.457 187.108 118.79 186.269 118.791H155.447V62.8873Z" fill="#3F3D56"/>
<path d="M133.284 50.049H132.936V66.2259H133.284V50.049Z" fill="#2F2E41"/>
<path d="M133.214 50.3969C132.492 50.3969 131.785 50.1826 131.185 49.7812C130.584 49.3799 130.116 48.8094 129.839 48.1419C129.563 47.4744 129.49 46.7399 129.631 46.0313C129.772 45.3228 130.12 44.6719 130.631 44.161C131.142 43.6502 131.793 43.3023 132.501 43.1613C133.21 43.0204 133.944 43.0927 134.612 43.3692C135.279 43.6457 135.85 44.1139 136.251 44.7146C136.653 45.3153 136.867 46.0215 136.867 46.744C136.867 47.7128 136.482 48.6419 135.797 49.327C135.112 50.012 134.183 50.3969 133.214 50.3969ZM133.214 43.439C132.56 43.439 131.921 43.6328 131.378 43.996C130.834 44.3592 130.411 44.8753 130.161 45.4792C129.911 46.0831 129.845 46.7477 129.973 47.3888C130.1 48.0299 130.415 48.6187 130.877 49.081C131.339 49.5432 131.928 49.8579 132.569 49.9855C133.21 50.113 133.875 50.0475 134.479 49.7974C135.083 49.5472 135.599 49.1236 135.962 48.5801C136.325 48.0366 136.519 47.3977 136.519 46.744C136.519 45.8675 136.171 45.0268 135.551 44.407C134.931 43.7872 134.091 43.439 133.214 43.439Z" fill="#2F2E41"/>
<path d="M168.877 28.3057H168.529V65.7041H168.877V28.3057Z" fill="#2F2E41"/>
<path d="M168.807 28.3057C168.085 28.3057 167.378 28.0915 166.778 27.6901C166.177 27.2887 165.709 26.7182 165.432 26.0507C165.156 25.3833 165.084 24.6488 165.225 23.9402C165.365 23.2316 165.713 22.5808 166.224 22.0699C166.735 21.559 167.386 21.2111 168.095 21.0702C168.803 20.9292 169.538 21.0016 170.205 21.2781C170.872 21.5545 171.443 22.0227 171.844 22.6234C172.246 23.2241 172.46 23.9304 172.46 24.6529C172.46 25.6217 172.075 26.5508 171.39 27.2358C170.705 27.9209 169.776 28.3057 168.807 28.3057ZM168.807 21.3479C168.153 21.3479 167.515 21.5417 166.971 21.9049C166.428 22.268 166.004 22.7842 165.754 23.3881C165.504 23.992 165.438 24.6565 165.566 25.2976C165.693 25.9387 166.008 26.5276 166.47 26.9898C166.932 27.452 167.521 27.7668 168.162 27.8943C168.803 28.0219 169.468 27.9564 170.072 27.7063C170.676 27.4561 171.192 27.0325 171.555 26.489C171.918 25.9455 172.112 25.3065 172.112 24.6529C172.112 23.7763 171.764 22.9357 171.144 22.3159C170.524 21.6961 169.684 21.3479 168.807 21.3479Z" fill="#2F2E41"/>
<path d="M155.862 102.687C152.79 102.687 149.843 101.466 147.67 99.293C145.497 97.1202 144.276 94.1731 144.276 91.1002C144.276 88.0273 145.497 85.0802 147.67 82.9074C149.843 80.7345 152.79 79.5138 155.862 79.5138V102.687Z" fill="#6C63FF"/>
<path d="M155.862 79.5138C158.935 79.5138 161.882 80.7345 164.055 82.9074C166.228 85.0802 167.449 88.0273 167.449 91.1002C167.449 94.1731 166.228 97.1202 164.055 99.293C161.882 101.466 158.935 102.687 155.862 102.687V79.5138Z" fill="#E6E6E6"/>
<path d="M196.043 125.316H116.03C115.246 125.315 114.494 125.003 113.94 124.449C113.386 123.894 113.074 123.143 113.073 122.359V59.1461C113.074 58.3621 113.386 57.6104 113.94 57.0561C114.494 56.5017 115.246 56.1899 116.03 56.189H196.043C196.827 56.1899 197.579 56.5017 198.133 57.0561C198.687 57.6104 198.999 58.3621 199 59.1461V122.359C198.999 123.143 198.687 123.894 198.133 124.449C197.579 125.003 196.827 125.315 196.043 125.316ZM116.03 56.5369C115.338 56.5377 114.675 56.8128 114.186 57.302C113.697 57.7911 113.422 58.4543 113.421 59.1461V122.359C113.422 123.05 113.697 123.714 114.186 124.203C114.675 124.692 115.338 124.967 116.03 124.968H196.043C196.735 124.967 197.398 124.692 197.887 124.203C198.376 123.714 198.651 123.05 198.652 122.359V59.1461C198.651 58.4543 198.376 57.7911 197.887 57.302C197.398 56.8128 196.735 56.5377 196.043 56.5369H116.03Z" fill="#3F3D56"/>
<path d="M150.839 39.8277H150.491V84.2904H150.839V39.8277Z" fill="#2F2E41"/>
<path d="M150.769 39.9653C150.047 39.9653 149.34 39.7511 148.74 39.3497C148.139 38.9483 147.671 38.3778 147.394 37.7103C147.118 37.0428 147.046 36.3084 147.187 35.5998C147.327 34.8912 147.675 34.2403 148.186 33.7295C148.697 33.2186 149.348 32.8707 150.057 32.7298C150.765 32.5888 151.5 32.6611 152.167 32.9376C152.834 33.2141 153.405 33.6823 153.806 34.283C154.208 34.8837 154.422 35.59 154.422 36.3124C154.422 37.2812 154.037 38.2103 153.352 38.8954C152.667 39.5804 151.738 39.9653 150.769 39.9653ZM150.769 33.0075C150.115 33.0075 149.477 33.2013 148.933 33.5644C148.39 33.9276 147.966 34.4438 147.716 35.0477C147.466 35.6516 147.4 36.3161 147.528 36.9572C147.655 37.5983 147.97 38.1872 148.432 38.6494C148.894 39.1116 149.483 39.4264 150.124 39.5539C150.765 39.6814 151.43 39.616 152.034 39.3658C152.638 39.1157 153.154 38.6921 153.517 38.1486C153.88 37.6051 154.074 36.9661 154.074 36.3124C154.074 35.4359 153.726 34.5953 153.106 33.9755C152.486 33.3557 151.646 33.0075 150.769 33.0075Z" fill="#2F2E41"/>
<path d="M128.084 115.902C129.348 115.902 130.374 114.877 130.374 113.612C130.374 112.347 129.348 111.322 128.084 111.322C126.819 111.322 125.794 112.347 125.794 113.612C125.794 114.877 126.819 115.902 128.084 115.902Z" fill="#3F3D56"/>
<path d="M184.311 115.902C185.576 115.902 186.601 114.877 186.601 113.612C186.601 112.347 185.576 111.322 184.311 111.322C183.046 111.322 182.021 112.347 182.021 113.612C182.021 114.877 183.046 115.902 184.311 115.902Z" fill="#E6E6E6"/>
<path d="M128.084 70.3591C129.348 70.3591 130.374 69.3339 130.374 68.0692C130.374 66.8046 129.348 65.7794 128.084 65.7794C126.819 65.7794 125.794 66.8046 125.794 68.0692C125.794 69.3339 126.819 70.3591 128.084 70.3591Z" fill="#3F3D56"/>
<path d="M184.311 70.3591C185.576 70.3591 186.601 69.3339 186.601 68.0692C186.601 66.8046 185.576 65.7794 184.311 65.7794C183.046 65.7794 182.021 66.8046 182.021 68.0692C182.021 69.3339 183.046 70.3591 184.311 70.3591Z" fill="#E6E6E6"/>
<path d="M132.17 51.4405C134.092 51.4405 135.649 49.883 135.649 47.9616C135.649 46.0403 134.092 44.4827 132.17 44.4827C130.249 44.4827 128.692 46.0403 128.692 47.9616C128.692 49.883 130.249 51.4405 132.17 51.4405Z" fill="#F2F2F2"/>
<path d="M167.763 29.3494C169.685 29.3494 171.242 27.7918 171.242 25.8705C171.242 23.9491 169.685 22.3916 167.763 22.3916C165.842 22.3916 164.285 23.9491 164.285 25.8705C164.285 27.7918 165.842 29.3494 167.763 29.3494Z" fill="#3F3D56"/>
<path d="M149.726 41.009C151.647 41.009 153.204 39.4514 153.204 37.5301C153.204 35.6087 151.647 34.0511 149.726 34.0511C147.804 34.0511 146.247 35.6087 146.247 37.5301C146.247 39.4514 147.804 41.009 149.726 41.009Z" fill="#6C63FF"/>
</g>
<defs>
<clipPath id="clip0_6_114">
<rect width="198" height="158" fill="white" transform="translate(1 21)"/>
</clipPath>
</defs>
</svg>
