<svg width="200" height="200" viewBox="0 0 200 200" fill="none" xmlns="http://www.w3.org/2000/svg">
<g clip-path="url(#clip0_6_77)">
<path d="M12.581 65.1528C10.0927 65.1528 7.66027 64.4152 5.59134 63.0333C3.5224 61.6514 1.90987 59.6872 0.957645 57.3892C0.00542064 55.0911 -0.243725 52.5624 0.241715 50.1229C0.727155 47.6833 1.92538 45.4424 3.68486 43.6835C5.44434 41.9247 7.68606 40.7269 10.1265 40.2416C12.567 39.7564 15.0966 40.0054 17.3955 40.9573C19.6944 41.9092 21.6592 43.5211 23.0417 45.5893C24.4241 47.6575 25.1619 50.089 25.1619 52.5764C25.1582 55.9107 23.8315 59.1074 21.4729 61.4651C19.1143 63.8228 15.9165 65.149 12.581 65.1528ZM12.581 40.524C10.1963 40.524 7.8653 41.2309 5.88257 42.5552C3.89985 43.8795 2.3545 45.7619 1.44195 47.9641C0.529402 50.1664 0.290639 52.5898 0.755852 54.9277C1.22106 57.2656 2.36936 59.4132 4.05553 61.0987C5.7417 62.7843 7.89001 63.9322 10.2288 64.3972C12.5676 64.8623 14.9918 64.6236 17.1949 63.7114C19.398 62.7991 21.281 61.2544 22.6058 59.2724C23.9306 57.2903 24.6377 54.9601 24.6377 52.5764C24.6341 49.381 23.3627 46.3175 21.1024 44.0581C18.8421 41.7986 15.7775 40.5276 12.581 40.524Z" fill="#F2F2F2"/>
<path d="M98.0268 57.8166C96.7826 57.8166 95.5664 57.4478 94.5319 56.7568C93.4975 56.0659 92.6912 55.0838 92.2151 53.9348C91.739 52.7858 91.6144 51.5214 91.8571 50.3016C92.0999 49.0818 92.699 47.9614 93.5787 47.0819C94.4585 46.2025 95.5793 45.6036 96.7995 45.361C98.0198 45.1184 99.2846 45.2429 100.434 45.7188C101.583 46.1948 102.566 47.0008 103.257 48.0348C103.948 49.0689 104.317 50.2847 104.317 51.5284C104.315 53.1955 103.652 54.7939 102.473 55.9727C101.293 57.1516 99.6945 57.8147 98.0268 57.8166ZM98.0268 45.7642C96.8863 45.7642 95.7714 46.1023 94.8232 46.7356C93.8749 47.369 93.1358 48.2693 92.6994 49.3225C92.263 50.3758 92.1488 51.5348 92.3713 52.6529C92.5938 53.7711 93.143 54.7981 93.9494 55.6043C94.7558 56.4104 95.7833 56.9594 96.9018 57.1818C98.0204 57.4042 99.1798 57.2901 100.233 56.8538C101.287 56.4175 102.188 55.6787 102.821 54.7308C103.455 53.7829 103.793 52.6684 103.793 51.5284C103.791 50.0002 103.183 48.535 102.102 47.4544C101.021 46.3738 99.5555 45.7659 98.0268 45.7642Z" fill="#F2F2F2"/>
<path d="M142.322 88.4716C140.923 88.4716 139.554 88.0567 138.391 87.2794C137.227 86.5021 136.32 85.3972 135.784 84.1046C135.249 82.8119 135.108 81.3895 135.381 80.0173C135.655 78.645 136.329 77.3845 137.318 76.3951C138.308 75.4058 139.569 74.732 140.942 74.4591C142.314 74.1861 143.737 74.3262 145.03 74.8616C146.324 75.3971 147.429 76.3038 148.206 77.4671C148.984 78.6305 149.399 79.9982 149.399 81.3974C149.397 83.2729 148.651 85.0711 147.324 86.3973C145.997 87.7235 144.199 88.4695 142.322 88.4716ZM142.322 74.8472C141.026 74.8472 139.759 75.2313 138.682 75.9511C137.604 76.6708 136.764 77.6938 136.268 78.8907C135.773 80.0876 135.643 81.4046 135.896 82.6753C136.148 83.9459 136.773 85.113 137.689 86.0291C138.605 86.9451 139.773 87.569 141.044 87.8217C142.315 88.0745 143.633 87.9448 144.83 87.449C146.027 86.9532 147.051 86.1137 147.771 85.0365C148.491 83.9593 148.875 82.6929 148.875 81.3974C148.873 79.6608 148.182 77.9958 146.954 76.7678C145.725 75.5399 144.06 74.8491 142.322 74.8472Z" fill="#F2F2F2"/>
<path d="M199.738 160H140.765C140.695 160 140.628 159.972 140.579 159.923C140.53 159.874 140.502 159.807 140.502 159.738C140.502 159.669 140.53 159.602 140.579 159.553C140.628 159.504 140.695 159.476 140.765 159.476H199.738C199.807 159.476 199.874 159.504 199.923 159.553C199.972 159.602 200 159.669 200 159.738C200 159.807 199.972 159.874 199.923 159.923C199.874 159.972 199.807 160 199.738 160Z" fill="#CCCCCC"/>
<path d="M167.987 80.152C171.542 80.152 174.424 77.2709 174.424 73.7168C174.424 70.1627 171.542 67.2816 167.987 67.2816C164.431 67.2816 161.549 70.1627 161.549 73.7168C161.549 77.2709 164.431 80.152 167.987 80.152Z" fill="#FFB8B8"/>
<path d="M168.655 150.134L165.612 151.166L160.178 139.926L164.668 138.402L168.655 150.134Z" fill="#FFB8B8"/>
<path d="M163.143 151.035L169.011 149.043L170.266 152.736L160.704 155.983C160.539 155.498 160.471 154.985 160.505 154.474C160.538 153.963 160.672 153.464 160.899 153.004C161.125 152.545 161.44 152.134 161.825 151.797C162.21 151.459 162.658 151.2 163.143 151.035Z" fill="#2F2E41"/>
<path d="M175.529 156.483L172.32 156.644L170.171 144.346L174.907 144.108L175.529 156.483Z" fill="#FFB8B8"/>
<path d="M169.982 155.842L176.171 155.531L176.367 159.427L166.28 159.934C166.255 159.422 166.33 158.91 166.502 158.428C166.674 157.945 166.94 157.502 167.283 157.122C167.627 156.742 168.042 156.433 168.505 156.214C168.968 155.994 169.47 155.868 169.982 155.842Z" fill="#2F2E41"/>
<path d="M156.431 115.624C156.719 115.367 156.947 115.051 157.099 114.698C157.252 114.344 157.324 113.961 157.313 113.576C157.301 113.191 157.205 112.813 157.032 112.469C156.858 112.125 156.611 111.824 156.308 111.585L159.368 102.736L154.653 103.941L152.47 112.16C152.103 112.695 151.946 113.345 152.027 113.989C152.108 114.632 152.423 115.223 152.911 115.65C153.4 116.077 154.028 116.31 154.676 116.305C155.325 116.301 155.949 116.058 156.431 115.624Z" fill="#FFB8B8"/>
<path d="M175.229 152.775C175.188 152.775 175.146 152.773 175.105 152.768L170.749 152.307C170.481 152.28 170.231 152.162 170.04 151.972C169.849 151.783 169.729 151.533 169.701 151.266L166.334 121.263L163.898 129.473L168.44 145.609C168.486 145.773 168.496 145.945 168.469 146.114C168.442 146.283 168.379 146.443 168.284 146.585C168.189 146.727 168.064 146.846 167.918 146.935C167.772 147.024 167.609 147.08 167.439 147.099L163.023 147.607C162.742 147.638 162.459 147.567 162.225 147.408C161.992 147.249 161.823 147.011 161.749 146.738L156.924 128.58C156.884 128.431 156.874 128.275 156.895 128.122L159.063 111.826L175.239 113.122L176.408 151.56C176.413 151.717 176.386 151.875 176.329 152.022C176.272 152.169 176.186 152.303 176.076 152.417C175.966 152.53 175.834 152.62 175.689 152.682C175.544 152.743 175.387 152.775 175.229 152.775Z" fill="#2F2E41"/>
<path d="M169.638 115.909C164.219 115.909 158.083 113.816 157.712 113.687L157.604 113.65L163.718 82.2916L163.83 82.2962C166.253 82.3945 172.865 82.4449 172.931 82.4454L173.05 82.4463L175.598 110.119L176.054 114.167L175.998 114.212C174.439 115.472 172.113 115.909 169.638 115.909Z" fill="#6C63FF"/>
<path d="M159.848 113.199L156.024 111.659L157.973 88.093C158.02 87.5121 158.196 86.949 158.49 86.4455C158.784 85.942 159.187 85.5108 159.67 85.1838L161.682 83.8149C161.625 83.6214 161.615 83.4171 161.652 83.2189C161.689 83.0206 161.773 82.8341 161.897 82.6745C162.02 82.5149 162.18 82.3869 162.362 82.301C162.545 82.215 162.745 82.1736 162.947 82.1801L163.523 82.1986C163.633 82.1248 163.762 82.0858 163.894 82.0867C164.026 82.0877 164.155 82.1285 164.264 82.2039C164.372 82.2793 164.455 82.3857 164.502 82.5092C164.549 82.6326 164.558 82.7674 164.526 82.8957L164.4 85.3925L159.848 113.199Z" fill="#2F2E41"/>
<path d="M157.918 108.974L152.925 108.764L154.543 98.3641L155.883 88.5784C155.909 88.227 156.015 87.8862 156.191 87.5812C156.368 87.2763 156.611 87.0153 156.903 86.8176C157.195 86.6199 157.528 86.4907 157.877 86.4397C158.225 86.3886 158.581 86.417 158.917 86.5228C159.441 86.6871 159.89 87.0304 160.186 87.4925C160.482 87.9547 160.606 88.5062 160.536 89.0504L159.178 99.6532L157.918 108.974Z" fill="#2F2E41"/>
<path d="M165.824 113.559L165.79 113.454C165.767 113.382 163.517 106.167 167.281 97.5576L169.169 88.171L170.783 82.2771C170.813 82.1718 170.867 82.0749 170.942 81.9943C171.016 81.9137 171.108 81.8514 171.21 81.8126C171.331 81.7709 171.461 81.7656 171.584 81.7973C171.708 81.829 171.819 81.8963 171.905 81.9909C173.029 81.6609 174.238 81.7817 175.275 82.3278L177.541 83.5209C178.045 83.7862 178.446 84.2112 178.683 84.7291C178.919 85.247 178.977 85.8286 178.847 86.3829L175.75 99.5941L177.255 111.934L165.824 113.559Z" fill="#2F2E41"/>
<path d="M169.121 108.473C169.504 108.514 169.892 108.471 170.256 108.347C170.621 108.223 170.954 108.02 171.232 107.753C171.51 107.486 171.726 107.162 171.864 106.802C172.003 106.443 172.061 106.058 172.035 105.673L179.048 100.48L176.597 99.3185L169.035 103.212C168.392 103.299 167.803 103.619 167.38 104.111C166.957 104.603 166.73 105.233 166.74 105.881C166.751 106.529 166.999 107.151 167.438 107.629C167.877 108.107 168.476 108.407 169.121 108.473Z" fill="#FFB8B8"/>
<path d="M173.518 106.148L171.149 101.728L176.991 97.8851L174.14 87.6642C174.026 87.255 173.997 86.8266 174.056 86.4059C174.115 85.9852 174.26 85.5811 174.482 85.2189C174.704 84.8567 174.999 84.5441 175.347 84.3008C175.695 84.0574 176.09 83.8884 176.507 83.8045C177.243 83.6578 178.007 83.7831 178.658 84.1573C179.309 84.5314 179.802 85.1289 180.045 85.8387L183.891 97.1405C183.971 97.3734 183.975 97.6253 183.904 97.8608C183.833 98.0963 183.69 98.3037 183.495 98.4539L173.518 106.148Z" fill="#2F2E41"/>
<path d="M168.442 75.0817C167.671 75.1821 167.088 74.3928 166.818 73.6632C166.548 72.9336 166.343 72.0842 165.672 71.6901C164.755 71.1517 163.582 71.7993 162.534 71.6216C161.35 71.421 160.581 70.1669 160.52 68.9682C160.46 67.7694 160.937 66.6165 161.405 65.5113L161.569 66.8848C161.547 66.4193 161.645 65.956 161.854 65.5391C162.062 65.1223 162.374 64.7659 162.76 64.504L162.549 66.5195C162.594 66.2414 162.693 65.9749 162.841 65.7353C162.989 65.4957 163.183 65.2877 163.412 65.1233C163.641 64.9588 163.9 64.8411 164.174 64.777C164.448 64.7128 164.733 64.7035 165.011 64.7494L164.978 65.9503C166.345 65.7878 167.724 65.625 169.095 65.7488C170.467 65.8727 171.848 66.3064 172.887 67.2092C174.442 68.5596 175.009 70.7832 174.819 72.8333C174.628 74.8833 173.782 76.8092 172.899 78.6696C172.677 79.1377 172.37 79.6659 171.855 79.7255C171.393 79.779 170.97 79.3926 170.826 78.9499C170.715 78.4956 170.719 78.021 170.838 77.5688C170.969 76.8778 171.133 76.1715 171.01 75.4791C170.888 74.7867 170.39 74.1025 169.691 74.0176C168.993 73.9328 168.279 74.7306 168.614 75.3485L168.442 75.0817Z" fill="#2F2E41"/>
<path d="M84.2165 145.741L81.7106 144.686L79.9915 132.128H57.0994L55.2361 144.635L52.9942 145.755C52.8869 145.809 52.8009 145.897 52.7501 146.006C52.6993 146.114 52.6866 146.237 52.7142 146.353C52.7417 146.47 52.8079 146.574 52.9019 146.649C52.996 146.723 53.1124 146.763 53.2323 146.763H84.01C84.1329 146.763 84.252 146.721 84.3471 146.643C84.4422 146.565 84.5075 146.457 84.5318 146.337C84.5561 146.216 84.538 146.091 84.4806 145.982C84.4231 145.874 84.3298 145.788 84.2165 145.741Z" fill="#E6E6E6"/>
<path d="M124.897 133.799H12.4449C11.8549 133.798 11.2895 133.563 10.8728 133.145C10.4561 132.728 10.222 132.162 10.222 131.572V115.721H127.12V131.572C127.12 132.162 126.886 132.728 126.469 133.145C126.053 133.563 125.487 133.798 124.897 133.799Z" fill="#CCCCCC"/>
<path d="M127.238 123.212H10.1194V55.387C10.1202 54.6752 10.4034 53.9928 10.907 53.4895C11.4105 52.9862 12.0931 52.7031 12.8052 52.7023H124.552C125.264 52.7031 125.947 52.9862 126.45 53.4895C126.954 53.9928 127.237 54.6752 127.238 55.387V123.212Z" fill="#3F3D56"/>
<path d="M120.243 118.29H17.1144C16.5655 118.289 16.0392 118.071 15.651 117.683C15.2628 117.295 15.0445 116.769 15.0439 116.22V59.6948C15.0445 59.146 15.2628 58.6199 15.651 58.2319C16.0392 57.8439 16.5655 57.6256 17.1144 57.6249H120.243C120.792 57.6256 121.318 57.8439 121.706 58.2319C122.094 58.6199 122.313 59.146 122.313 59.6948V116.22C122.313 116.769 122.094 117.295 121.706 117.683C121.318 118.071 120.792 118.289 120.243 118.29Z" fill="white"/>
<path d="M119.272 146.894H19.4106C19.3411 146.894 19.2744 146.867 19.2253 146.818C19.1761 146.769 19.1485 146.702 19.1485 146.632C19.1485 146.563 19.1761 146.496 19.2253 146.447C19.2744 146.398 19.3411 146.37 19.4106 146.37H119.272C119.342 146.37 119.408 146.398 119.457 146.447C119.507 146.496 119.534 146.563 119.534 146.632C119.534 146.702 119.507 146.769 119.457 146.818C119.408 146.867 119.342 146.894 119.272 146.894Z" fill="#CCCCCC"/>
<path d="M110.554 111.266H26.8029C26.7334 111.266 26.6667 111.239 26.6176 111.19C26.5684 111.14 26.5408 111.074 26.5408 111.004V70.8769C26.5408 70.8074 26.5684 70.7407 26.6176 70.6916C26.6667 70.6425 26.7334 70.6148 26.8029 70.6148C26.8724 70.6148 26.9391 70.6425 26.9882 70.6916C27.0374 70.7407 27.065 70.8074 27.065 70.8769V110.742H110.554C110.624 110.742 110.69 110.77 110.74 110.819C110.789 110.868 110.816 110.935 110.816 111.004C110.816 111.074 110.789 111.14 110.74 111.19C110.69 111.239 110.624 111.266 110.554 111.266Z" fill="#3F3D56"/>
<path d="M44.6969 108.384H37.0794C36.8731 108.384 36.6754 108.302 36.5295 108.156C36.3836 108.01 36.3016 107.813 36.3013 107.607V97.1096C36.3016 96.9034 36.3836 96.7057 36.5295 96.5599C36.6754 96.4141 36.8731 96.3321 37.0794 96.3319H44.6969C44.9032 96.3321 45.1009 96.4141 45.2468 96.5599C45.3927 96.7057 45.4747 96.9034 45.475 97.1096V107.607C45.4747 107.813 45.3927 108.01 45.2468 108.156C45.1009 108.302 44.9032 108.384 44.6969 108.384Z" fill="#6C63FF"/>
<path d="M58.5884 108.384H50.9709C50.7646 108.384 50.5669 108.302 50.421 108.156C50.2751 108.01 50.1931 107.813 50.1928 107.607V87.1533C50.1931 86.9471 50.2751 86.7494 50.421 86.6036C50.5669 86.4578 50.7646 86.3758 50.9709 86.3755H58.5884C58.7947 86.3758 58.9924 86.4578 59.1383 86.6036C59.2842 86.7494 59.3662 86.9471 59.3665 87.1533V107.607C59.3662 107.813 59.2842 108.01 59.1383 108.156C58.9924 108.302 58.7947 108.384 58.5884 108.384Z" fill="#6C63FF"/>
<path d="M72.4799 108.384H64.8624C64.6561 108.384 64.4583 108.302 64.3125 108.156C64.1666 108.01 64.0846 107.813 64.0843 107.607V97.1096C64.0846 96.9034 64.1666 96.7057 64.3125 96.5599C64.4583 96.4141 64.6561 96.3321 64.8624 96.3319H72.4799C72.6862 96.3321 72.8839 96.4141 73.0298 96.5599C73.1756 96.7057 73.2577 96.9034 73.2579 97.1096V107.607C73.2577 107.813 73.1756 108.01 73.0298 108.156C72.8839 108.302 72.6862 108.384 72.4799 108.384Z" fill="#6C63FF"/>
<path d="M86.3714 108.384H78.7539C78.5523 108.389 78.3572 108.313 78.2114 108.174C78.0656 108.035 77.9809 107.843 77.9758 107.642V83.1879C77.9809 82.9864 78.0656 82.7951 78.2114 82.656C78.3572 82.5168 78.5523 82.4411 78.7539 82.4454H86.3714C86.573 82.4411 86.7681 82.5168 86.9139 82.656C87.0597 82.7951 87.1444 82.9864 87.1495 83.1879V107.642C87.1444 107.843 87.0597 108.035 86.9139 108.174C86.7681 108.313 86.573 108.389 86.3714 108.384Z" fill="#6C63FF"/>
<path d="M100.263 108.384H92.6454C92.4391 108.384 92.2413 108.302 92.0955 108.156C91.9496 108.01 91.8676 107.813 91.8673 107.607V76.1489C91.8676 75.9427 91.9496 75.745 92.0955 75.5992C92.2413 75.4534 92.4391 75.3714 92.6454 75.3712H100.263C100.469 75.3714 100.667 75.4534 100.813 75.5992C100.959 75.745 101.041 75.9427 101.041 76.1489V107.607C101.041 107.813 100.959 108.01 100.813 108.156C100.667 108.302 100.469 108.384 100.263 108.384Z" fill="#6C63FF"/>
<path d="M40.8882 93.1878C41.7567 93.1878 42.4608 92.4839 42.4608 91.6157C42.4608 90.7475 41.7567 90.0437 40.8882 90.0437C40.0196 90.0437 39.3156 90.7475 39.3156 91.6157C39.3156 92.4839 40.0196 93.1878 40.8882 93.1878Z" fill="#3F3D56"/>
<path d="M54.7797 82.9694C55.6482 82.9694 56.3523 82.2656 56.3523 81.3974C56.3523 80.5292 55.6482 79.8253 54.7797 79.8253C53.9111 79.8253 53.207 80.5292 53.207 81.3974C53.207 82.2656 53.9111 82.9694 54.7797 82.9694Z" fill="#3F3D56"/>
<path d="M68.6711 93.1878C69.5397 93.1878 70.2438 92.4839 70.2438 91.6157C70.2438 90.7475 69.5397 90.0437 68.6711 90.0437C67.8026 90.0437 67.0985 90.7475 67.0985 91.6157C67.0985 92.4839 67.8026 93.1878 68.6711 93.1878Z" fill="#3F3D56"/>
<path d="M82.5626 77.9913C83.4312 77.9913 84.1353 77.2874 84.1353 76.4192C84.1353 75.551 83.4312 74.8472 82.5626 74.8472C81.6941 74.8472 80.99 75.551 80.99 76.4192C80.99 77.2874 81.6941 77.9913 82.5626 77.9913Z" fill="#3F3D56"/>
<path d="M96.4541 72.2271C97.3227 72.2271 98.0267 71.5232 98.0267 70.655C98.0267 69.7868 97.3227 69.083 96.4541 69.083C95.5856 69.083 94.8815 69.7868 94.8815 70.655C94.8815 71.5232 95.5856 72.2271 96.4541 72.2271Z" fill="#3F3D56"/>
<path d="M68.7042 91.9679L54.7797 81.542L41.0454 91.8253L40.7309 91.4061L54.7797 80.8872L68.6381 91.2636L82.4093 76.1986L82.4646 76.1761L96.3561 70.5811L96.5522 71.0672L82.716 76.6398L68.7042 91.9679Z" fill="#3F3D56"/>
</g>
<defs>
<clipPath id="clip0_6_77">
<rect width="200" height="120" fill="white" transform="translate(0 40)"/>
</clipPath>
</defs>
</svg>
